<svg width="38" height="49" viewBox="0 0 38 49" fill="none" xmlns="http://www.w3.org/2000/svg">
<path d="M29.9678 8.7168C29.9678 8.7168 32.7248 13.5202 30.5156 16.5029C28.6495 19.022 25.3863 17.6639 22.9062 19.6895C22.0679 20.3742 21.1298 21.7742 20.6484 23.1035V27.0791C21.1698 25.8791 22.873 22.5043 25.8535 21.6436C29.4973 20.5914 30.9688 21.6117 33.1416 21.3428C34.3562 21.1925 35.9982 20.8459 36.959 20.291C37.4795 19.9904 38 19.5391 38 19.5391C38 19.5391 37.7696 24.8995 34.1826 26.6035C31.1525 28.0429 27.415 26.7533 24.1182 27.5049C22.5196 27.8693 21.2519 28.4178 20.6484 29.6426V35.498C21.1698 34.2981 22.873 30.9233 25.8535 30.0625C29.4973 29.0104 30.9688 30.0306 33.1416 29.7617C34.3562 29.6114 35.9982 29.2648 36.959 28.71C37.4795 28.4093 38 27.958 38 27.958C38 27.958 37.7696 33.3184 34.1826 35.0225C31.1525 36.4619 27.415 35.1723 24.1182 35.9238C22.5196 36.2883 21.2519 36.8368 20.6484 38.0615V44.0684C21.1674 42.8725 22.8712 39.4899 25.8555 38.6279C29.4993 37.5758 30.9708 38.596 33.1436 38.3271C34.3581 38.1768 36.0001 37.8302 36.9609 37.2754C37.4815 36.9748 38.002 36.5234 38.002 36.5234C38.002 36.5234 37.7716 41.8839 34.1846 43.5879C31.1545 45.0273 27.4178 43.7388 24.1211 44.4902C22.5201 44.8552 21.2509 45.4042 20.6484 46.6328V49H17.5254V48.999H17.3535V46.6328C16.751 45.4046 15.4816 44.8551 13.8809 44.4902C10.5842 43.7389 6.84738 45.0282 3.81738 43.5889C0.239368 41.8892 0.00118195 36.5514 0 36.5244C0.00650647 36.53 0.523834 36.9767 1.04102 37.2754C2.00184 37.8303 3.64379 38.1778 4.8584 38.3281C7.03116 38.597 8.50266 37.5768 12.1465 38.6289C15.131 39.491 16.8348 42.8738 17.3535 44.0693V38.0615C16.7501 36.8368 15.4823 36.2883 13.8838 35.9238C10.587 35.1723 6.84948 36.4619 3.81934 35.0225C0.23236 33.3184 0.00195312 27.958 0.00195312 27.958C0.00195312 27.958 0.522431 28.4093 1.04297 28.71C2.00373 29.2648 3.64577 29.6114 4.86035 29.7617C7.03311 30.0306 8.50461 29.0104 12.1484 30.0625C15.1289 30.9233 16.8322 34.2981 17.3535 35.498V29.6426C16.7501 28.4178 15.4823 27.8693 13.8838 27.5049C10.587 26.7533 6.84948 28.0429 3.81934 26.6035C0.23236 24.8995 0.00195312 19.5391 0.00195312 19.5391C0.00195312 19.5391 0.522431 19.9904 1.04297 20.291C2.00373 20.8459 3.64577 21.1925 4.86035 21.3428C7.03311 21.6117 8.50461 20.5914 12.1484 21.6436C15.1289 22.5043 16.8322 25.8791 17.3535 27.0791V23.5498C16.9406 22.0994 15.886 20.4515 14.9531 19.6895C12.4729 17.6635 9.20898 19.0224 7.34277 16.5029C5.13357 13.5202 7.8916 8.7168 7.8916 8.7168C7.8916 8.7168 8.10532 10.1755 8.35938 10.6709C9.05344 12.0237 10.0836 12.6797 11.1357 13.2266C13.7383 14.5792 14.7776 13.1639 17.3965 15.5977C18.2502 16.3911 18.7031 17.4519 18.9287 18.5205C19.1543 17.4518 19.6089 16.3912 20.4629 15.5977C23.0818 13.164 24.1209 14.5793 26.7236 13.2266C27.7756 12.6798 28.805 12.0235 29.499 10.6709C29.7531 10.1757 29.9678 8.7168 29.9678 8.7168ZM18.8086 0C18.8208 0.0121635 24.7018 5.88384 23.2529 9.01855C22.2107 11.2731 18.8086 14.1289 18.8086 14.1289C18.8086 14.1289 15.1966 10.8487 14.4033 9.01855C12.9261 5.60963 18.8086 0 18.8086 0Z" fill="#2F7255"/>
</svg>
