<svg width="40" height="40" viewBox="0 0 40 40" fill="none" xmlns="http://www.w3.org/2000/svg">
  <!-- Fern with elegant tapered leaves -->
  <!-- Central stem -->
  <rect x="18" y="6" width="4" height="32" fill="#2F7255"/>

  <!-- Bottom pair - largest -->
  <path d="M18 31 Q14 33 8 32 Q4 30 3 27 Q6 27 10 28 Q15 29 18 29 Z" fill="#2F7255"/>
  <path d="M22 31 Q26 33 32 32 Q36 30 37 27 Q34 27 30 28 Q25 29 22 29 Z" fill="#2F7255"/>

  <!-- Middle pair -->
  <path d="M18 23 Q14 25 9 24 Q5 22 4 19 Q7 19 11 20 Q15 21 18 21 Z" fill="#2F7255"/>
  <path d="M22 23 Q26 25 31 24 Q35 22 36 19 Q33 19 29 20 Q25 21 22 21 Z" fill="#2F7255"/>

  <!-- Top pair - smallest -->
  <path d="M18 15 Q15 17 11 16 Q8 14 7 12 Q10 12 13 13 Q16 14 18 13 Z" fill="#2F7255"/>
  <path d="M22 15 Q25 17 29 16 Q32 14 33 12 Q30 12 27 13 Q24 14 22 13 Z" fill="#2F7255"/>
</svg>
