<svg width="40" height="48" viewBox="0 0 40 48" fill="none" xmlns="http://www.w3.org/2000/svg">
  <!-- Stylized fern with filled lobed leaves -->
  <g fill="#2F7255">
    <!-- Central stem -->
    <rect x="18.5" y="6" width="3" height="40" rx="1.5"/>

    <!-- Top leaves (smallest) -->
    <ellipse cx="16" cy="8" rx="4" ry="3" transform="rotate(-20 16 8)"/>
    <ellipse cx="24" cy="8" rx="4" ry="3" transform="rotate(20 24 8)"/>

    <!-- Second pair -->
    <ellipse cx="13" cy="13" rx="5.5" ry="3.5" transform="rotate(-25 13 13)"/>
    <ellipse cx="27" cy="13" rx="5.5" ry="3.5" transform="rotate(25 27 13)"/>

    <!-- Third pair -->
    <ellipse cx="11" cy="19" rx="6.5" ry="4" transform="rotate(-30 11 19)"/>
    <ellipse cx="29" cy="19" rx="6.5" ry="4" transform="rotate(30 29 19)"/>

    <!-- Fourth pair -->
    <ellipse cx="10" cy="26" rx="7" ry="4.5" transform="rotate(-35 10 26)"/>
    <ellipse cx="30" cy="26" rx="7" ry="4.5" transform="rotate(35 30 26)"/>

    <!-- Fifth pair -->
    <ellipse cx="10" cy="33" rx="7.5" ry="4.5" transform="rotate(-40 10 33)"/>
    <ellipse cx="30" cy="33" rx="7.5" ry="4.5" transform="rotate(40 30 33)"/>

    <!-- Bottom pair (largest) -->
    <ellipse cx="11" cy="40" rx="8" ry="5" transform="rotate(-45 11 40)"/>
    <ellipse cx="29" cy="40" rx="8" ry="5" transform="rotate(45 29 40)"/>
  </g>
</svg>
