<svg width="40" height="40" viewBox="0 0 40 40" fill="none" xmlns="http://www.w3.org/2000/svg">
  <!-- Fern with pointed leaves -->
  <!-- Central stem -->
  <rect x="18" y="6" width="4" height="32" fill="#2F7255"/>
  <!-- Pointed leaf pairs -->
  <path d="M18 30 Q10 32 4 28 Q10 26 18 28 Z" fill="#2F7255"/>
  <path d="M22 30 Q30 32 36 28 Q30 26 22 28 Z" fill="#2F7255"/>
  <path d="M18 22 Q10 24 5 20 Q10 18 18 20 Z" fill="#2F7255"/>
  <path d="M22 22 Q30 24 35 20 Q30 18 22 20 Z" fill="#2F7255"/>
  <path d="M18 14 Q12 16 7 12 Q12 10 18 12 Z" fill="#2F7255"/>
  <path d="M22 14 Q28 16 33 12 Q28 10 22 12 Z" fill="#2F7255"/>
</svg>
