<svg width="40" height="40" viewBox="0 0 40 40" fill="none" xmlns="http://www.w3.org/2000/svg">
  <!-- Fern - clean teardrop leaves like reference -->
  <!-- Central stem -->
  <rect x="18" y="8" width="4" height="30" fill="#2F7255"/>

  <!-- Bottom pair - teardrop shape -->
  <path d="M18 33 C12 36 4 34 3 30 C4 28 8 28 12 30 C16 31 18 31 18 31 Z" fill="#2F7255"/>
  <path d="M22 33 C28 36 36 34 37 30 C36 28 32 28 28 30 C24 31 22 31 22 31 Z" fill="#2F7255"/>

  <!-- Middle pair -->
  <path d="M18 24 C13 27 6 25 5 21 C6 19 9 19 13 21 C16 22 18 22 18 22 Z" fill="#2F7255"/>
  <path d="M22 24 C27 27 34 25 35 21 C34 19 31 19 27 21 C24 22 22 22 22 22 Z" fill="#2F7255"/>

  <!-- Top pair - smaller -->
  <path d="M18 16 C14 18 9 17 8 14 C9 12 11 12 14 14 C16 15 18 14 18 14 Z" fill="#2F7255"/>
  <path d="M22 16 C26 18 31 17 32 14 C31 12 29 12 26 14 C24 15 22 14 22 14 Z" fill="#2F7255"/>
</svg>
