<svg width="100" height="100" viewBox="0 0 100 100" fill="none" xmlns="http://www.w3.org/2000/svg">
  <!-- Mathematically symmetrical seed of life flower -->
  <!-- Filled version showing overlapping geometry -->

  <g transform="translate(50, 50)" fill="#2F7255">
    <!--
      Using circle radius R = 20
      Centers at distance R from origin at 60° intervals
      Vesica piscis formed where circles overlap
      Math: for R=20, vesica width ≈ 17.32 (R * sqrt(3) / 2 * 2)
    -->

    <!-- 6 outer petals - vesica piscis shapes pointing outward -->
    <!-- Each is the intersection of the center circle with an outer circle -->

    <!-- Petal pointing up (0°) -->
    <path d="M -10 -17.32
             A 20 20 0 0 1 10 -17.32
             A 20 20 0 0 1 -10 -17.32 Z"/>

    <!-- Petal 60° -->
    <path d="M -10 -17.32 A 20 20 0 0 1 10 -17.32 A 20 20 0 0 1 -10 -17.32 Z"
          transform="rotate(60)"/>

    <!-- Petal 120° -->
    <path d="M -10 -17.32 A 20 20 0 0 1 10 -17.32 A 20 20 0 0 1 -10 -17.32 Z"
          transform="rotate(120)"/>

    <!-- Petal 180° -->
    <path d="M -10 -17.32 A 20 20 0 0 1 10 -17.32 A 20 20 0 0 1 -10 -17.32 Z"
          transform="rotate(180)"/>

    <!-- Petal 240° -->
    <path d="M -10 -17.32 A 20 20 0 0 1 10 -17.32 A 20 20 0 0 1 -10 -17.32 Z"
          transform="rotate(240)"/>

    <!-- Petal 300° -->
    <path d="M -10 -17.32 A 20 20 0 0 1 10 -17.32 A 20 20 0 0 1 -10 -17.32 Z"
          transform="rotate(300)"/>

    <!-- 6 inner petals - between the outer petals -->
    <!-- These are smaller vesica shapes closer to center -->
    <path d="M 0 -10
             A 20 20 0 0 1 8.66 -5
             A 20 20 0 0 1 0 -10 Z"/>

    <path d="M 0 -10 A 20 20 0 0 1 8.66 -5 A 20 20 0 0 1 0 -10 Z"
          transform="rotate(60)"/>

    <path d="M 0 -10 A 20 20 0 0 1 8.66 -5 A 20 20 0 0 1 0 -10 Z"
          transform="rotate(120)"/>

    <path d="M 0 -10 A 20 20 0 0 1 8.66 -5 A 20 20 0 0 1 0 -10 Z"
          transform="rotate(180)"/>

    <path d="M 0 -10 A 20 20 0 0 1 8.66 -5 A 20 20 0 0 1 0 -10 Z"
          transform="rotate(240)"/>

    <path d="M 0 -10 A 20 20 0 0 1 8.66 -5 A 20 20 0 0 1 0 -10 Z"
          transform="rotate(300)"/>

    <!-- Center hexagon -->
    <polygon points="0,-10 8.66,-5 8.66,5 0,10 -8.66,5 -8.66,-5"/>
  </g>
</svg>
