<svg width="40" height="40" viewBox="-2 -2 92 103" fill="none" xmlns="http://www.w3.org/2000/svg">
  <!-- Chosn logo - Seed of life flower -->
  <path d="M43.2063 0.183594C51.6633 3.08275 57.2756 9.22177 59.9104 16.3564C66.4239 13.7191 74.0488 13.4927 81.5559 16.8018L81.8176 17.3232C87.2321 28.3865 84.481 39.9798 77.4651 47.708C84.2749 53.5783 88.3734 62.6858 86.76 73.123L86.3235 73.5107C78.9249 79.9599 69.8593 81.4867 61.7854 79.4248C59.7461 87.8089 53.8975 95.3415 44.4104 98.8906L43.8596 98.7002C34.5594 95.3842 28.7758 88.1597 26.6536 80.0508C18.2577 82.641 8.5938 81.3164 0.786381 74.5107L0.350834 74.123C-1.26058 63.6986 2.8245 54.5996 9.61939 48.7285C1.89388 41.0255 -1.36536 28.885 4.29322 17.3232L4.55494 16.8018C12.1613 13.449 19.8876 13.7272 26.4573 16.4639C29.0015 9.36892 34.43 3.19143 42.6526 0L43.2063 0.183594ZM56.7463 78.9199C52.4766 80.9366 47.7055 82.0664 42.6702 82.0664C38.9165 82.0664 35.3095 81.4387 31.9475 80.2842C33.8548 85.9196 38.0031 90.8671 44.3186 93.5156C50.8855 90.4983 55.06 85.0227 56.7463 78.9199ZM43.7903 65.0693C41.8078 69.5043 38.6743 73.2145 34.8645 75.9619C37.3423 76.6798 39.961 77.0664 42.6702 77.0664C46.1807 77.0664 49.5396 76.418 52.636 75.2383C48.9433 72.6695 45.8545 69.2106 43.7903 65.0693ZM10.2434 55.21C6.64567 59.5216 4.5683 65.2023 5.08326 71.5732C10.6681 75.9288 17.2628 77.0577 23.2737 75.7646C16.6069 70.9128 11.8281 63.6259 10.2434 55.21ZM75.4719 52.6836C74.5059 61.5441 70.0333 69.3492 63.47 74.6846C69.5783 76.1044 76.329 75.0176 82.0276 70.5732C82.6059 63.4188 79.9142 57.1355 75.4719 52.6836ZM41.0227 54.0938C34.1767 58.3912 30.7955 65.5469 30.7385 72.7158C36.5313 69.0586 40.7177 62.8151 41.0774 55.0947C41.0534 54.7633 41.035 54.4297 41.0227 54.0938ZM46.1028 54.374C46.1005 54.5753 46.0966 54.7758 46.0901 54.9756C46.76 62.8174 51.4086 69.0433 57.5999 72.4385C57.5524 66.3367 55.15 60.2392 50.2981 55.7949C49.619 55.6123 48.9371 55.4041 48.2542 55.166L47.7063 54.9688L46.1028 54.374ZM14.9309 52.8848C15.959 60.4239 19.9867 67.0073 25.7737 71.3936C26.0504 66.1672 27.7777 61.0059 30.9915 56.6494C25.1256 57.1556 19.5906 55.696 14.9309 52.8848ZM70.3411 53.3701C66.5754 55.465 62.2827 56.6922 57.7317 56.7471C60.2781 60.4442 61.8171 64.6488 62.3694 68.9619C66.5304 64.8417 69.4067 59.4269 70.3411 53.3701ZM35.2131 47.9541C29.4063 45.9952 23.3796 46.5878 18.2502 49.0186C23.5071 51.9141 30.01 52.7452 36.6682 50.2793L37.5891 49.9395L37.6204 49.8457C37.6378 49.7944 37.654 49.7427 37.6711 49.6914C36.8081 49.1468 35.9886 48.5669 35.2131 47.9541ZM69.2297 48.1992C64.0894 45.6527 58.0046 44.9644 52.1292 46.876C51.2796 47.5901 50.3718 48.2622 49.4065 48.8887C50.5738 49.6061 51.6626 50.3874 52.6731 51.2246C58.7665 52.546 64.5738 51.2118 69.2297 48.1992ZM24.8137 27.498C19.5845 31.8323 15.9593 38.0323 14.9544 45.0771C19.3599 42.7385 24.3805 41.5387 29.5032 41.8037C26.6047 37.5019 25.0501 32.5257 24.8137 27.498ZM29.8645 24.1865C29.2824 31.2445 31.8602 38.5513 37.7131 43.5293C38.0882 43.671 38.4622 43.8218 38.8352 43.9814C39.4435 35.9782 35.7272 28.716 29.8645 24.1865ZM55.9544 24.4131C50.3884 28.8535 46.8394 35.7892 47.2405 43.4492C48.0056 43.0847 48.7764 42.7592 49.551 42.4717C54.6662 37.7962 56.9769 31.2097 56.6077 24.7764C56.3918 24.6522 56.1738 24.5316 55.9544 24.4131ZM61.5549 28.3936C61.2033 32.7466 59.8385 37.0283 57.4368 40.8125C61.8079 40.5587 66.1082 41.3752 70.0208 43.0557C68.7637 37.3094 65.7446 32.223 61.5549 28.3936ZM77.8684 20.7129C72.0427 18.636 66.2121 19.0696 61.2239 21.2373C61.259 21.4385 61.2927 21.6399 61.3235 21.8418C68.3371 26.6564 73.3946 34.1102 75.0676 42.7715C79.5843 36.817 81.2338 28.6606 77.8684 20.7129ZM24.9114 21.248C19.9177 19.071 14.0778 18.6326 8.24244 20.7129C5.03024 28.2986 6.38648 36.0742 10.4436 41.9443C12.3508 33.2754 17.664 25.8844 24.9114 21.248ZM42.6702 21.0664C40.0503 21.0664 37.5147 21.4267 35.1096 22.0996C38.901 25.6888 41.7206 30.3068 43.0549 35.4824C44.3679 30.3895 47.1194 25.8366 50.8196 22.2725C48.2409 21.4892 45.5048 21.0664 42.6702 21.0664ZM42.8098 5.37305C36.9996 8.12945 33.1067 12.8094 31.1838 18.1211C34.761 16.7928 38.6307 16.0664 42.6702 16.0664C47.1822 16.0664 51.4825 16.9731 55.3997 18.6123C53.4476 12.9337 49.2178 7.96845 42.8098 5.37305Z" fill="#2F7255"/>
</svg>
