<svg width="102" height="102" viewBox="0 0 102 102" fill="none" xmlns="http://www.w3.org/2000/svg">
<path d="M51 0C51 0 58.8307 23.9252 70 34.5C80.2101 44.1667 102 51 102 51H51V0Z" fill="#417057"/>
<path d="M51 0C51 0 43.1693 23.9252 32 34.5C21.7899 44.1667 0 51 0 51H51V0Z" fill="#419161"/>
<path d="M51 102C51 102 58.8307 78.0748 70 67.5C80.2101 57.8333 102 51 102 51H51V102Z" fill="#E0763D"/>
<path d="M51 102C51 102 43.1693 78.0748 32 67.5C21.7899 57.8333 0 51 0 51H51V102Z" fill="#F5AA3D"/>
</svg>
