<svg width="98" height="98" viewBox="0 0 98 98" fill="none" xmlns="http://www.w3.org/2000/svg">
<path d="M48.9854 0C48.9854 0 49.4863 15.5 49.4858 21C47.9858 29 40.7474 37.498 40.7474 37.498C40.7474 37.498 39.7474 36.998 35.9089 29.5C30.7851 19.4912 48.9854 0 48.9854 0Z" fill="#2F7255"/>
<path d="M48.9854 0C48.9854 0 49.0127 15.5 49.0132 21C50.5132 29 57.7516 37.498 57.7516 37.498C57.7516 37.498 58.7516 36.998 62.5901 29.5C67.7139 19.4912 48.9854 0 48.9854 0Z" fill="#54AF88"/>
<path d="M0 48.4922C0 48.4922 15.5 47.9912 21 47.9917C29 49.4917 37.498 56.7301 37.498 56.7301C37.498 56.7301 36.998 57.7301 29.5 61.5686C19.4912 66.6924 0 48.4922 0 48.4922Z" fill="#2F7255"/>
<path d="M0 48.4922C0 48.4922 15.5 48.4648 21 48.4643C29 46.9643 37.498 39.7259 37.498 39.7259C37.498 39.7259 36.998 38.7259 29.5 34.8874C19.4912 29.7636 0 48.4922 0 48.4922Z" fill="#54AF88"/>
<path d="M49.4922 97.498C49.4922 97.498 48.9912 81.998 48.9917 76.498C50.4917 68.498 57.7301 60 57.7301 60C57.7301 60 58.7301 60.5 62.5686 67.998C67.6924 78.0069 49.4922 97.498 49.4922 97.498Z" fill="#2F7255"/>
<path d="M49.4922 97.498C49.4922 97.498 49.4648 81.998 49.4643 76.498C47.9643 68.498 40.7259 60 40.7259 60C40.7259 60 39.7259 60.5 35.8874 67.998C30.7636 78.0069 49.4922 97.498 49.4922 97.498Z" fill="#54AF88"/>
<path d="M97.498 48.9854C97.498 48.9854 81.998 49.4863 76.498 49.4858C68.498 47.9858 60 40.7474 60 40.7474C60 40.7474 60.5 39.7474 67.998 35.9089C78.0069 30.7851 97.498 48.9854 97.498 48.9854Z" fill="#2F7255"/>
<path d="M97.498 48.9854C97.498 48.9854 81.998 49.0127 76.498 49.0132C68.498 50.5132 60 57.7516 60 57.7516C60 57.7516 60.5 58.7516 67.998 62.5901C78.0069 67.7139 97.498 48.9854 97.498 48.9854Z" fill="#54AF88"/>
</svg>
