<svg width="173" height="173" viewBox="0 0 173 173" fill="none" xmlns="http://www.w3.org/2000/svg">
<path d="M86.3467 44.346C86.3467 44.346 92.7956 64.0491 101.994 72.7578C110.402 80.7186 128.347 86.346 128.347 86.346H86.3467V44.346Z" fill="#417057"/>
<path d="M86.3467 44.346C86.3467 44.346 79.8979 64.0491 70.6997 72.7578C62.2914 80.7186 44.3467 86.346 44.3467 86.346H86.3467V44.346Z" fill="#419161"/>
<path d="M86.3467 128.346C86.3467 128.346 92.7956 108.643 101.994 99.9343C110.402 91.9735 128.347 86.346 128.347 86.346H86.3467V128.346Z" fill="#E0763D"/>
<path d="M86.3467 128.346C86.3467 128.346 79.8979 108.643 70.6997 99.9343C62.2914 91.9735 44.3467 86.346 44.3467 86.346H86.3467V128.346Z" fill="#F5AA3D"/>
<path d="M165.817 6.95294C162.906 4.04148 157.192 2.53182 148.701 3.12809C140.379 3.71255 130.113 6.27738 119.006 10.552C96.7964 19.0998 71.7737 34.2692 53.0215 53.0213C34.2694 71.7735 19.1 96.7961 10.5523 119.006C6.27759 130.113 3.71276 140.378 3.12831 148.701C2.53205 157.192 4.0417 162.906 6.95316 165.817C9.86464 168.729 15.5786 170.238 24.0694 169.642C32.3919 169.058 42.6574 166.493 53.7644 162.218C75.9742 153.67 100.997 138.501 119.749 119.749L121.87 121.87L120.971 122.762C83.0194 160.101 21.1654 182.929 5.20266 168.294L4.83184 167.939C-10.6401 152.467 12.7359 89.0643 50.9002 50.9C89.0645 12.7357 152.467 -10.6404 167.939 4.83162L168.294 5.20243C183.045 21.2919 159.737 84.0039 121.87 121.87L119.749 119.749C138.501 100.997 153.671 75.974 162.218 53.7642C166.493 42.6572 169.058 32.3917 169.642 24.0692C170.239 15.5784 168.729 9.86442 165.817 6.95294Z" fill="#1A1A1A"/>
<path d="M6.95317 6.95294C9.86464 4.04148 15.5786 2.53182 24.0694 3.12809C32.3919 3.71255 42.6574 6.27738 53.7644 10.552C75.9743 19.0998 100.997 34.2692 119.749 53.0213C138.501 71.7735 153.671 96.7961 162.218 119.006C166.493 130.113 169.058 140.378 169.642 148.701C170.239 157.192 168.729 162.906 165.817 165.817C162.906 168.729 157.192 170.238 148.701 169.642C140.379 169.058 130.113 166.493 119.006 162.218C96.7964 153.67 71.7737 138.501 53.0215 119.749L50.9002 121.87L51.7993 122.762C89.7512 160.101 151.605 182.929 167.568 168.294L167.939 167.939C183.411 152.467 160.035 89.0643 121.87 50.9C83.7061 12.7357 20.3038 -10.6404 4.83185 4.83162L4.47623 5.20243C-10.2744 21.2919 13.0339 84.0039 50.9002 121.87L53.0215 119.749C34.2694 100.997 19.1001 75.974 10.5523 53.7642C6.27763 42.6572 3.7128 32.3917 3.12833 24.0692C2.53206 15.5784 4.04175 9.86442 6.95317 6.95294Z" fill="#1A1A1A"/>
</svg>
