<svg viewBox="0 0 800 800" fill="none" xmlns="http://www.w3.org/2000/svg" style="width:100%;height:100%" preserveAspectRatio="xMidYMid meet">
  <!-- Square version: Benefits of a Childfree Life -->

  <!-- Left - forest green with airplane -->
  <rect x="0" y="0" width="400" height="800" fill="#2F7255"/>

  <!-- Airplane - centered at (200, 400), scaled 0.7 -->
  <g transform="translate(200, 400) rotate(-45) scale(0.75)">
    <g>
      <animateTransform
        attributeName="transform"
        type="translate"
        values="0,0; 5,-5; 0,0"
        dur="4s"
        repeatCount="indefinite"
        calcMode="spline"
        keySplines="0.4 0 0.6 1; 0.4 0 0.6 1"
      />
      <ellipse cx="0" cy="0" rx="18" ry="90" fill="#F5F0E8"/>
      <ellipse cx="0" cy="-85" rx="12" ry="20" fill="#F5F0E8"/>
      <path d="M-14,-10 L-95,35 L-95,50 L-14,15 Z" fill="#F5F0E8"/>
      <path d="M14,-10 L95,35 L95,50 L14,15 Z" fill="#F5F0E8"/>
      <path d="M-12,65 L-45,90 L-45,100 L-12,80 Z" fill="#D4654A"/>
      <path d="M12,65 L45,90 L45,100 L12,80 Z" fill="#D4654A"/>
      <ellipse cx="-50" cy="25" rx="8" ry="18" fill="#F5F0E8"/>
      <ellipse cx="50" cy="25" rx="8" ry="18" fill="#F5F0E8"/>
    </g>
  </g>

  <!-- Clouds - repositioned for narrower panel -->
  <g fill="#F5F0E8" opacity="0.35">
    <g>
      <animateTransform attributeName="transform" type="translate" values="0,0;8,0;0,0" dur="12s" repeatCount="indefinite" calcMode="spline" keySplines="0.4 0 0.6 1; 0.4 0 0.6 1"/>
      <circle cx="60" cy="120" r="22"/>
      <circle cx="90" cy="110" r="28"/>
      <circle cx="125" cy="118" r="22"/>
    </g>
    <g>
      <animateTransform attributeName="transform" type="translate" values="0,0;-10,0;0,0" dur="15s" repeatCount="indefinite" calcMode="spline" keySplines="0.4 0 0.6 1; 0.4 0 0.6 1"/>
      <circle cx="280" cy="680" r="25"/>
      <circle cx="315" cy="670" r="32"/>
      <circle cx="355" cy="678" r="24"/>
    </g>
  </g>

  <!-- Stars - repositioned -->
  <g fill="#D9A441">
    <polygon points="350,100 354,112 366,112 356,120 360,132 350,124 340,132 344,120 334,112 346,112">
      <animate attributeName="opacity" values="0.55;0.9;0.55" dur="3s" repeatCount="indefinite"/>
    </polygon>
    <polygon points="50,350 53,358 61,358 55,363 57,371 50,366 43,371 45,363 39,358 47,358">
      <animate attributeName="opacity" values="0.55;0.85;0.55" dur="4s" begin="1s" repeatCount="indefinite"/>
    </polygon>
    <polygon points="200,750 202,756 208,756 204,760 205,766 200,762 195,766 196,760 192,756 198,756">
      <animate attributeName="opacity" values="0.55;0.8;0.55" dur="2.5s" begin="0.5s" repeatCount="indefinite"/>
    </polygon>
  </g>

  <!-- Top right - coral with clock -->
  <rect x="400" y="0" width="400" height="400" fill="#D4654A"/>
  <g transform="translate(600, 200) scale(0.7)">
    <circle cx="0" cy="0" r="90" fill="#F5F0E8"/>
    <circle cx="0" cy="0" r="76" fill="#2F7255"/>
    <g fill="#F5F0E8">
      <circle cx="0" cy="-58" r="7"/>
      <circle cx="58" cy="0" r="7"/>
      <circle cx="0" cy="58" r="7"/>
      <circle cx="-58" cy="0" r="7"/>
    </g>
    <line x1="0" y1="0" x2="0" y2="-42" stroke="#D9A441" stroke-width="7" stroke-linecap="round"/>
    <!-- Minute hand with slow rotation -->
    <g>
      <animateTransform attributeName="transform" type="rotate" from="0" to="360" dur="60s" repeatCount="indefinite"/>
      <line x1="0" y1="0" x2="0" y2="-52" stroke="#F5F0E8" stroke-width="5" stroke-linecap="round"/>
    </g>
    <circle cx="0" cy="0" r="10" fill="#F5F0E8"/>
  </g>

  <!-- Bottom right - navy with wine glasses -->
  <rect x="400" y="400" width="400" height="400" fill="#19131D"/>
  <g transform="translate(600, 620) scale(0.7)">
    <!-- Heart -->
    <path d="M0,-115 C-6,-122 -15,-122 -18,-115 C-22,-108 -18,-100 0,-85 C18,-100 22,-108 18,-115 C15,-122 6,-122 0,-115 Z" fill="#D9A441">
      <animateTransform attributeName="transform" type="scale" values="1;1.08;1" dur="2s" repeatCount="indefinite" calcMode="spline" keySplines="0.4 0 0.6 1; 0.4 0 0.6 1"/>
    </path>
    <!-- Left wine glass -->
    <g transform="translate(-65, 0)">
      <path d="M-32,-70 C-35,-30 -30,5 0,15 C30,5 35,-30 32,-70" fill="none" stroke="#F5F0E8" stroke-width="4"/>
      <path d="M-28,-40 C-30,-15 -25,5 0,12 C25,5 30,-15 28,-40 Z" fill="#D4654A"/>
      <ellipse cx="0" cy="-70" rx="32" ry="10" fill="none" stroke="#F5F0E8" stroke-width="4"/>
      <line x1="0" y1="15" x2="0" y2="55" stroke="#F5F0E8" stroke-width="4"/>
      <ellipse cx="0" cy="58" rx="25" ry="6" fill="#F5F0E8"/>
    </g>
    <!-- Right wine glass -->
    <g transform="translate(65, 0)">
      <path d="M-32,-70 C-35,-30 -30,5 0,15 C30,5 35,-30 32,-70" fill="none" stroke="#F5F0E8" stroke-width="4"/>
      <path d="M-28,-40 C-30,-15 -25,5 0,12 C25,5 30,-15 28,-40 Z" fill="#D4654A"/>
      <ellipse cx="0" cy="-70" rx="32" ry="10" fill="none" stroke="#F5F0E8" stroke-width="4"/>
      <line x1="0" y1="15" x2="0" y2="55" stroke="#F5F0E8" stroke-width="4"/>
      <ellipse cx="0" cy="58" rx="25" ry="6" fill="#F5F0E8"/>
    </g>
  </g>
</svg>
