<svg viewBox="0 0 800 800" style="width:100%;height:100%" preserveAspectRatio="xMidYMid meet" fill="none" xmlns="http://www.w3.org/2000/svg">
  <!-- Square version: Best Cities for Childfree Adults -->

  <!-- Left panel - forest green with city skyline -->
  <rect x="0" y="0" width="400" height="800" fill="#2F7255"/>

  <!-- City skyline - repositioned and scaled -->
  <g fill="#19131D" transform="translate(0, 50) scale(0.65)">
    <!-- Building 1 -->
    <rect x="60" y="320" width="70" height="480"/>
    <rect x="75" y="350" width="12" height="20" fill="#D9A441"/>
    <rect x="100" y="350" width="12" height="20" fill="#D9A441"/>
    <rect x="75" y="400" width="12" height="20" fill="#D9A441"/>
    <rect x="100" y="400" width="12" height="20" fill="#D9A441"/>
    <rect x="75" y="450" width="12" height="20" fill="#D9A441"/>
    <rect x="100" y="450" width="12" height="20" fill="#D9A441"/>
    <rect x="75" y="500" width="12" height="20" fill="#D9A441"/>
    <rect x="100" y="500" width="12" height="20" fill="#D9A441"/>

    <!-- Building 2 -->
    <rect x="150" y="420" width="90" height="380"/>
    <rect x="190" y="360" width="10" height="60"/>
    <rect x="165" y="450" width="15" height="25" fill="#F5F0E8"/>
    <rect x="190" y="450" width="15" height="25" fill="#F5F0E8"/>
    <rect x="215" y="450" width="15" height="25" fill="#F5F0E8"/>
    <rect x="165" y="500" width="15" height="25" fill="#F5F0E8"/>
    <rect x="190" y="500" width="15" height="25" fill="#F5F0E8"/>
    <rect x="215" y="500" width="15" height="25" fill="#F5F0E8"/>

    <!-- Building 3 -->
    <rect x="260" y="520" width="120" height="280"/>
    <rect x="275" y="550" width="20" height="30" fill="#D4654A"/>
    <rect x="310" y="550" width="20" height="30" fill="#D4654A"/>
    <rect x="345" y="550" width="20" height="30" fill="#D4654A"/>
    <rect x="275" y="600" width="20" height="30" fill="#D4654A"/>
    <rect x="310" y="600" width="20" height="30" fill="#D4654A"/>
    <rect x="345" y="600" width="20" height="30" fill="#D4654A"/>

    <!-- Building 4 - tallest -->
    <rect x="400" y="220" width="80" height="580"/>
    <polygon points="440,220 400,280 480,280" fill="#19131D"/>
    <rect x="415" y="290" width="14" height="22" fill="#D9A441"/>
    <rect x="435" y="290" width="14" height="22" fill="#D9A441"/>
    <rect x="455" y="290" width="14" height="22" fill="#D9A441"/>
    <rect x="415" y="340" width="14" height="22" fill="#D9A441"/>
    <rect x="435" y="340" width="14" height="22" fill="#D9A441"/>
    <rect x="455" y="340" width="14" height="22" fill="#D9A441"/>

    <!-- Building 5 -->
    <rect x="500" y="580" width="80" height="220"/>
    <rect x="515" y="610" width="18" height="28" fill="#F5F0E8"/>
    <rect x="545" y="610" width="18" height="28" fill="#F5F0E8"/>
    <rect x="515" y="660" width="18" height="28" fill="#F5F0E8"/>
    <rect x="545" y="660" width="18" height="28" fill="#F5F0E8"/>
  </g>

  <!-- Sun -->
  <circle cx="100" cy="100" r="45" fill="#D9A441">
    <animate attributeName="r" values="45;52;45" dur="4s" repeatCount="indefinite"/>
  </circle>

  <!-- Top right panel - coral with location pin -->
  <rect x="400" y="0" width="400" height="400" fill="#D4654A"/>

  <!-- Location pin - centered -->
  <g transform="translate(600, 200) scale(0.65)">
    <g>
      <animateTransform attributeName="transform" type="translate" values="0,0; 0,-15; 0,0" dur="2.5s" repeatCount="indefinite"/>
      <path d="M0 -130 C-55 -130 -95 -90 -95 -35 C-95 10 -60 60 0 140 C60 60 95 10 95 -35 C95 -90 55 -130 0 -130 Z" fill="#F5F0E8"/>
      <circle cx="0" cy="-35" r="42" fill="#19131D"/>
      <circle cx="0" cy="-35" r="22" fill="#F5F0E8"/>
    </g>
  </g>

  <!-- Bottom right panel - gold with map grid -->
  <rect x="400" y="400" width="400" height="400" fill="#D9A441"/>

  <!-- Road grid - repositioned -->
  <g stroke="#F5F0E8" stroke-width="6" fill="none">
    <line x1="450" y1="450" x2="450" y2="750"/>
    <line x1="550" y1="430" x2="550" y2="770"/>
    <line x1="680" y1="450" x2="680" y2="750"/>
    <line x1="420" y1="500" x2="780" y2="500"/>
    <line x1="420" y1="600" x2="780" y2="600"/>
    <line x1="420" y1="700" x2="780" y2="700"/>
  </g>

  <!-- Location markers -->
  <circle cx="550" cy="500" r="14" fill="#D4654A"/>
  <circle cx="550" cy="500" r="6" fill="#F5F0E8"/>
  <circle cx="680" cy="600" r="14" fill="#2F7255"/>
  <circle cx="680" cy="600" r="6" fill="#F5F0E8"/>
  <circle cx="450" cy="700" r="14" fill="#19131D"/>
  <circle cx="450" cy="700" r="6" fill="#F5F0E8"/>

  <!-- Small building icons -->
  <rect x="590" y="540" width="24" height="32" fill="#19131D"/>
  <rect x="598" y="548" width="8" height="12" fill="#F5F0E8"/>
  <rect x="500" y="640" width="20" height="40" fill="#19131D"/>
  <rect x="506" y="650" width="8" height="12" fill="#F5F0E8"/>

  <!-- Animated cars -->
  <rect width="16" height="8" rx="2" fill="#19131D">
    <animate attributeName="x" values="420;760;420" dur="8s" repeatCount="indefinite"/>
    <animate attributeName="y" values="496;496;496" dur="8s" repeatCount="indefinite"/>
  </rect>
  <rect width="16" height="8" rx="2" fill="#2F7255">
    <animate attributeName="x" values="760;420;760" dur="10s" repeatCount="indefinite"/>
    <animate attributeName="y" values="596;596;596" dur="10s" repeatCount="indefinite"/>
  </rect>
</svg>
