<svg viewBox="0 0 800 800" style="width:100%;height:100%" preserveAspectRatio="xMidYMid meet" fill="none" xmlns="http://www.w3.org/2000/svg">
  <!-- Square version: Why Childfree Dating Apps Keep Failing -->

  <!-- Top left - coral with scattered leaves -->
  <rect x="0" y="0" width="450" height="250" fill="#D4654A"/>
  <ellipse cx="80" cy="50" rx="28" ry="14" fill="#2F7255" transform="rotate(-45 80 50)"/>
  <ellipse cx="200" cy="90" rx="24" ry="12" fill="#2F7255" transform="rotate(30 200 90)"/>
  <ellipse cx="320" cy="40" rx="30" ry="15" fill="#2F7255" transform="rotate(-20 320 40)"/>
  <ellipse cx="130" cy="140" rx="26" ry="13" fill="#2F7255" transform="rotate(60 130 140)"/>
  <ellipse cx="280" cy="130" rx="22" ry="11" fill="#2F7255" transform="rotate(-70 280 130)"/>
  <ellipse cx="400" cy="100" rx="28" ry="14" fill="#2F7255" transform="rotate(15 400 100)"/>
  <ellipse cx="60" cy="120" rx="24" ry="12" fill="#2F7255" transform="rotate(-30 60 120)"/>
  <ellipse cx="380" cy="180" rx="26" ry="13" fill="#2F7255" transform="rotate(45 380 180)"/>

  <!-- Top right - gold with wilted flower -->
  <rect x="450" y="0" width="350" height="400" fill="#D9A441"/>
  <g transform="translate(625, 200) scale(0.8)">
    <rect x="-6" y="0" width="12" height="130" fill="#2F7255"/>
    <!-- Animated petals -->
    <g>
      <animateTransform attributeName="transform" type="translate" values="0,0;0,0;0,120;0,120;0,0;0,0" dur="8s" begin="0s" repeatCount="indefinite" keyTimes="0;0.06;0.18;0.85;0.86;1"/>
      <animate attributeName="opacity" values="1;1;0;0;1" dur="8s" begin="0s" repeatCount="indefinite" keyTimes="0;0.06;0.18;0.94;1"/>
      <ellipse cx="-45" cy="5" rx="20" ry="36" fill="#D4654A" transform="rotate(-55 -45 5)"/>
    </g>
    <g>
      <animateTransform attributeName="transform" type="translate" values="0,0;0,0;0,120;0,120;0,0;0,0" dur="8s" begin="0s" repeatCount="indefinite" keyTimes="0;0.19;0.31;0.85;0.86;1"/>
      <animate attributeName="opacity" values="1;1;0;0;1" dur="8s" begin="0s" repeatCount="indefinite" keyTimes="0;0.19;0.31;0.94;1"/>
      <ellipse cx="45" cy="5" rx="20" ry="36" fill="#D4654A" transform="rotate(55 45 5)"/>
    </g>
    <g>
      <animateTransform attributeName="transform" type="translate" values="0,0;0,0;0,120;0,120;0,0;0,0" dur="8s" begin="0s" repeatCount="indefinite" keyTimes="0;0.31;0.43;0.85;0.86;1"/>
      <animate attributeName="opacity" values="1;1;0;0;1" dur="8s" begin="0s" repeatCount="indefinite" keyTimes="0;0.31;0.43;0.94;1"/>
      <ellipse cx="-28" cy="-35" rx="18" ry="32" fill="#D4654A" transform="rotate(-25 -28 -35)"/>
    </g>
    <g>
      <animateTransform attributeName="transform" type="translate" values="0,0;0,0;0,120;0,120;0,0;0,0" dur="8s" begin="0s" repeatCount="indefinite" keyTimes="0;0.43;0.55;0.85;0.86;1"/>
      <animate attributeName="opacity" values="1;1;0;0;1" dur="8s" begin="0s" repeatCount="indefinite" keyTimes="0;0.43;0.55;0.94;1"/>
      <ellipse cx="28" cy="-35" rx="18" ry="32" fill="#D4654A" transform="rotate(25 28 -35)"/>
    </g>
    <circle cx="0" cy="-18" r="22" fill="#2F7255"/>
  </g>

  <!-- Bottom left - green with phone + X -->
  <rect x="0" y="250" width="450" height="550" fill="#2F7255"/>
  <g transform="translate(225, 520) scale(0.85)">
    <rect x="-70" y="-120" width="140" height="240" rx="16" fill="#F5F0E8"/>
    <rect x="-58" y="-100" width="116" height="200" rx="4" fill="#D9A441"/>
    <g stroke="#D4654A" stroke-width="16" stroke-linecap="round">
      <animate attributeName="opacity" values="1;0.5;1" dur="2s" repeatCount="indefinite"/>
      <line x1="-35" y1="-50" x2="35" y2="40"/>
      <line x1="35" y1="-50" x2="-35" y2="40"/>
    </g>
  </g>

  <!-- Bottom right - navy with broken circle -->
  <rect x="450" y="400" width="350" height="400" fill="#19131D"/>
  <g transform="translate(625, 600) scale(0.85)">
    <g>
      <animateTransform attributeName="transform" type="rotate" from="0" to="360" dur="8s" repeatCount="indefinite"/>
      <path d="M55 0 A55 55 0 1 1 39 -39" stroke="#F5F0E8" stroke-width="12" fill="none" stroke-linecap="round"/>
    </g>
    <circle cx="0" cy="0" r="22" fill="#D9A441"/>
  </g>
</svg>
