<svg viewBox="0 0 800 800" style="width:100%;height:100%" preserveAspectRatio="xMidYMid meet" fill="none" xmlns="http://www.w3.org/2000/svg">
  <!-- Square version: Childfree Sterilization: What the Research Says About Regret -->

  <!-- Left panel - navy with clipboard -->
  <rect x="0" y="0" width="400" height="800" fill="#19131D"/>

  <g transform="translate(200, 420) scale(0.9)">
    <rect x="-80" y="-100" width="160" height="200" rx="8" fill="#F5F0E8"/>
    <rect x="-30" y="-115" width="60" height="25" rx="6" fill="#D9A441"/>
    <rect x="-20" y="-120" width="40" height="15" rx="4" fill="#D9A441"/>
    <!-- Chart bars -->
    <rect x="-55" y="30" width="30" height="45" rx="4" fill="#D4654A" opacity="0.4"/>
    <rect x="-15" y="-20" width="30" height="95" rx="4" fill="#2F7255"/>
    <rect x="25" y="-40" width="30" height="115" rx="4" fill="#2F7255"/>
    <!-- Labels -->
    <rect x="-55" y="85" width="30" height="4" rx="2" fill="#19131D" opacity="0.15"/>
    <rect x="-15" y="85" width="30" height="4" rx="2" fill="#19131D" opacity="0.15"/>
    <rect x="25" y="85" width="30" height="4" rx="2" fill="#19131D" opacity="0.15"/>
    <!-- Checkmark -->
    <g transform="translate(50, -60)">
      <circle cx="0" cy="0" r="45" fill="#2F7255"/>
      <path d="M -20 0 L -5 15 L 22 -15" stroke="#F5F0E8" stroke-width="10" stroke-linecap="round" stroke-linejoin="round" fill="none"/>
    </g>
  </g>

  <!-- Top right - coral with peaceful person -->
  <rect x="400" y="0" width="400" height="400" fill="#D4654A"/>
  <g transform="translate(600, 200) scale(0.75)">
    <circle cx="0" cy="-95" r="28" fill="#F5F0E8"/>
    <ellipse cx="0" cy="-5" rx="32" ry="60" fill="#F5F0E8"/>
    <path d="M -28 -45 Q -42 -25 -44 10 Q -45 40 -40 65" stroke="#F5F0E8" stroke-width="14" stroke-linecap="round" fill="none"/>
    <path d="M 28 -45 Q 42 -25 44 10 Q 45 40 40 65" stroke="#F5F0E8" stroke-width="14" stroke-linecap="round" fill="none"/>
    <rect x="-20" y="50" width="16" height="85" rx="7" fill="#F5F0E8"/>
    <rect x="4" y="50" width="16" height="85" rx="7" fill="#F5F0E8"/>
    <path d="M 0 -15 C -4 -22, -14 -22, -14 -8 C -14 4, 0 14, 0 14 C 0 14, 14 4, 14 -8 C 14 -22, 4 -22, 0 -15" fill="#D9A441"/>
  </g>

  <!-- Bottom right - gold with butterfly -->
  <rect x="400" y="400" width="400" height="400" fill="#D9A441"/>
  <g transform="translate(600, 620) scale(0.7)">
    <!-- Left wings -->
    <path d="M -8 -15 C -20 -80, -90 -90, -95 -40 C -100 5, -50 10, -8 5" fill="#F5F0E8"/>
    <path d="M -12 -12 C -22 -60, -75 -70, -78 -35 C -82 -5, -45 5, -12 2" fill="#D4654A"/>
    <path d="M -8 10 C -25 15, -70 25, -75 55 C -78 80, -40 85, -8 45" fill="#F5F0E8"/>
    <path d="M -10 15 C -22 20, -55 28, -58 50 C -60 68, -35 70, -10 40" fill="#D4654A"/>
    <!-- Right wings -->
    <path d="M 8 -15 C 20 -80, 90 -90, 95 -40 C 100 5, 50 10, 8 5" fill="#F5F0E8"/>
    <path d="M 12 -12 C 22 -60, 75 -70, 78 -35 C 82 -5, 45 5, 12 2" fill="#D4654A"/>
    <path d="M 8 10 C 25 15, 70 25, 75 55 C 78 80, 40 85, 8 45" fill="#F5F0E8"/>
    <path d="M 10 15 C 22 20, 55 28, 58 50 C 60 68, 35 70, 10 40" fill="#D4654A"/>
    <!-- Body -->
    <ellipse cx="0" cy="15" rx="8" ry="45" fill="#19131D"/>
    <circle cx="0" cy="-35" r="10" fill="#19131D"/>
    <path d="M -4 -44 Q -18 -65 -25 -75" stroke="#19131D" stroke-width="3" fill="none" stroke-linecap="round"/>
    <path d="M 4 -44 Q 18 -65 25 -75" stroke="#19131D" stroke-width="3" fill="none" stroke-linecap="round"/>
    <circle cx="-25" cy="-75" r="4" fill="#D4654A"/>
    <circle cx="25" cy="-75" r="4" fill="#D4654A"/>
  </g>
</svg>
