<svg width="1200" height="600" viewBox="0 0 1200 600" fill="none" xmlns="http://www.w3.org/2000/svg">
  <!-- "Building Your Chosen Family" - Connection theme -->

  <!-- Top left - green with connected branch pattern -->
  <rect x="0" y="0" width="600" height="350" fill="#2F7255"/>
  <!-- Branch network showing connection -->
  <g stroke="#F5F0E8" stroke-width="6" fill="none">
    <line x1="300" y1="175" x2="150" y2="80"/>
    <line x1="300" y1="175" x2="450" y2="80"/>
    <line x1="300" y1="175" x2="150" y2="270"/>
    <line x1="300" y1="175" x2="450" y2="270"/>
    <line x1="300" y1="175" x2="300" y2="50"/>
  </g>
  <!-- Flowers at branch ends (staggered pulse animation) -->
  <g fill="#D4654A">
    <circle cx="150" cy="80" r="28">
      <animate attributeName="r" values="28;40;28" dur="1.5s" begin="0s" repeatCount="indefinite" calcMode="spline" keySplines="0.4 0 0.6 1; 0.4 0 0.6 1"/>
    </circle>
    <circle cx="450" cy="80" r="28">
      <animate attributeName="r" values="28;40;28" dur="1.5s" begin="0.3s" repeatCount="indefinite" calcMode="spline" keySplines="0.4 0 0.6 1; 0.4 0 0.6 1"/>
    </circle>
    <circle cx="150" cy="270" r="28">
      <animate attributeName="r" values="28;40;28" dur="1.5s" begin="0.6s" repeatCount="indefinite" calcMode="spline" keySplines="0.4 0 0.6 1; 0.4 0 0.6 1"/>
    </circle>
    <circle cx="450" cy="270" r="28">
      <animate attributeName="r" values="28;40;28" dur="1.5s" begin="0.9s" repeatCount="indefinite" calcMode="spline" keySplines="0.4 0 0.6 1; 0.4 0 0.6 1"/>
    </circle>
    <circle cx="300" cy="50" r="28">
      <animate attributeName="r" values="28;40;28" dur="1.5s" begin="1.2s" repeatCount="indefinite" calcMode="spline" keySplines="0.4 0 0.6 1; 0.4 0 0.6 1"/>
    </circle>
  </g>
  <g fill="#D9A441">
    <circle cx="150" cy="80" r="12"/>
    <circle cx="450" cy="80" r="12"/>
    <circle cx="150" cy="270" r="12"/>
    <circle cx="450" cy="270" r="12"/>
    <circle cx="300" cy="50" r="12"/>
  </g>
  <!-- Center large flower -->
  <circle cx="300" cy="175" r="40" fill="#D9A441"/>
  <circle cx="300" cy="175" r="22" fill="#2F7255"/>

  <!-- Top right - coral with tulips -->
  <rect x="600" y="0" width="600" height="350" fill="#D4654A"/>
  <!-- Tulip row -->
  <g transform="translate(750, 200)">
    <rect x="-4" y="0" width="8" height="100" fill="#2F7255"/>
    <ellipse cx="-18" cy="-15" rx="18" ry="28" fill="#F5F0E8"/>
    <ellipse cx="0" cy="-25" rx="18" ry="28" fill="#F5F0E8"/>
    <ellipse cx="18" cy="-15" rx="18" ry="28" fill="#F5F0E8"/>
  </g>
  <g transform="translate(900, 180)">
    <rect x="-4" y="0" width="8" height="120" fill="#2F7255"/>
    <ellipse cx="-20" cy="-18" rx="20" ry="32" fill="#D9A441"/>
    <ellipse cx="0" cy="-30" rx="20" ry="32" fill="#D9A441"/>
    <ellipse cx="20" cy="-18" rx="20" ry="32" fill="#D9A441"/>
  </g>
  <g transform="translate(1050, 210)">
    <rect x="-4" y="0" width="8" height="90" fill="#2F7255"/>
    <ellipse cx="-16" cy="-14" rx="16" ry="26" fill="#F5F0E8"/>
    <ellipse cx="0" cy="-22" rx="16" ry="26" fill="#F5F0E8"/>
    <ellipse cx="16" cy="-14" rx="16" ry="26" fill="#F5F0E8"/>
  </g>

  <!-- Bottom left - gold with 8-pointed star -->
  <rect x="0" y="350" width="350" height="250" fill="#D9A441"/>
  <g transform="translate(175, 475)">
    <!-- 8-pointed star -->
    <polygon points="0,-60 15,-15 60,0 15,15 0,60 -15,15 -60,0 -15,-15" fill="#D4654A"/>
    <polygon points="0,-40 42,-42 40,0 42,42 0,40 -42,42 -40,0 -42,-42" fill="#D4654A"/>
    <circle cx="0" cy="0" r="20" fill="#F5F0E8"/>
  </g>

  <!-- Bottom center - light green with dot pattern -->
  <rect x="350" y="350" width="400" height="250" fill="#1A2E35"/>
  <!-- Dot grid -->
  <g fill="#F5F0E8">
    <circle cx="420" cy="420" r="10"/>
    <circle cx="480" cy="420" r="10"/>
    <circle cx="540" cy="420" r="10"/>
    <circle cx="600" cy="420" r="10"/>
    <circle cx="660" cy="420" r="10"/>
    <circle cx="420" cy="480" r="10"/>
    <circle cx="480" cy="480" r="10"/>
    <circle cx="540" cy="480" r="10"/>
    <circle cx="600" cy="480" r="10"/>
    <circle cx="660" cy="480" r="10"/>
    <circle cx="420" cy="540" r="10"/>
    <circle cx="480" cy="540" r="10"/>
    <circle cx="540" cy="540" r="10"/>
    <circle cx="600" cy="540" r="10"/>
    <circle cx="660" cy="540" r="10"/>
  </g>

  <!-- Bottom right - dark green with scalloped flower (animated slow spin) -->
  <rect x="750" y="350" width="450" height="250" fill="#2F7255"/>
  <g transform="translate(975, 475)">
    <!-- Scalloped/rounded flower -->
    <g>
      <animateTransform
        attributeName="transform"
        type="rotate"
        from="0"
        to="-360"
        dur="25s"
        repeatCount="indefinite"
      />
      <circle cx="0" cy="-36" r="28" fill="#D4654A"/>
      <circle cx="34" cy="-11" r="28" fill="#D4654A"/>
      <circle cx="21" cy="29" r="28" fill="#D4654A"/>
      <circle cx="-21" cy="29" r="28" fill="#D4654A"/>
      <circle cx="-34" cy="-11" r="28" fill="#D4654A"/>
    </g>
    <circle cx="0" cy="0" r="24" fill="#1A2E35"/>
    <circle cx="0" cy="0" r="14" fill="#D9A441"/>
  </g>
</svg>
