<svg width="700" height="900" viewBox="0 0 700 900" fill="none" xmlns="http://www.w3.org/2000/svg">
  <!-- Cityscape panel from about hero - Bauhaus style -->

  <rect x="0" y="0" width="700" height="900" fill="#2F7255"/>

  <!-- Sky - sun/moon -->
  <circle cx="540" cy="140" r="65" fill="#D9A441">
    <animate attributeName="r" values="65;72;65" dur="5s" repeatCount="indefinite" calcMode="spline" keySplines="0.4 0 0.6 1; 0.4 0 0.6 1"/>
  </circle>
  <circle cx="540" cy="140" r="30" fill="#2F7255"/>

  <!-- Ground plane -->
  <rect x="0" y="700" width="700" height="200" fill="#19131D"/>

  <!-- Cityscape silhouette -->
  <g fill="#19131D">
    <rect x="60" y="280" width="75" height="420"/>
    <rect x="75" y="310" width="14" height="22" fill="#D9A441"/>
    <rect x="105" y="310" width="14" height="22" fill="#D9A441"/>
    <rect x="75" y="360" width="14" height="22" fill="#D9A441"/>
    <rect x="105" y="360" width="14" height="22" fill="#D9A441"/>
    <rect x="75" y="410" width="14" height="22" fill="#F5F0E8"/>
    <rect x="105" y="410" width="14" height="22" fill="#D9A441"/>
    <rect x="75" y="460" width="14" height="22" fill="#D9A441"/>
    <rect x="105" y="460" width="14" height="22" fill="#F5F0E8"/>

    <rect x="155" y="360" width="100" height="340"/>
    <rect x="180" y="340" width="50" height="20" fill="#19131D"/>
    <rect x="170" y="390" width="18" height="28" fill="#F5F0E8"/>
    <rect x="198" y="390" width="18" height="28" fill="#F5F0E8"/>
    <rect x="226" y="390" width="18" height="28" fill="#F5F0E8"/>
    <rect x="170" y="440" width="18" height="28" fill="#D4654A"/>
    <rect x="198" y="440" width="18" height="28" fill="#F5F0E8"/>
    <rect x="226" y="440" width="18" height="28" fill="#D4654A"/>
    <rect x="170" y="490" width="18" height="28" fill="#F5F0E8"/>
    <rect x="198" y="490" width="18" height="28" fill="#D4654A"/>
    <rect x="226" y="490" width="18" height="28" fill="#F5F0E8"/>

    <rect x="280" y="200" width="90" height="500"/>
    <polygon points="325,200 280,270 370,270" fill="#19131D"/>
    <rect x="298" y="290" width="14" height="20" fill="#D9A441"/>
    <rect x="320" y="290" width="14" height="20" fill="#D9A441"/>
    <rect x="342" y="290" width="14" height="20" fill="#D9A441"/>
    <rect x="298" y="340" width="14" height="20" fill="#D9A441"/>
    <rect x="320" y="340" width="14" height="20" fill="#F5F0E8"/>
    <rect x="342" y="340" width="14" height="20" fill="#D9A441"/>
    <rect x="298" y="390" width="14" height="20" fill="#F5F0E8"/>
    <rect x="320" y="390" width="14" height="20" fill="#D9A441"/>
    <rect x="342" y="390" width="14" height="20" fill="#F5F0E8"/>
    <rect x="298" y="440" width="14" height="20" fill="#D9A441"/>
    <rect x="320" y="440" width="14" height="20" fill="#D9A441"/>
    <rect x="342" y="440" width="14" height="20" fill="#D9A441"/>

    <rect x="395" y="440" width="120" height="260"/>
    <rect x="412" y="470" width="20" height="30" fill="#D4654A"/>
    <rect x="445" y="470" width="20" height="30" fill="#F5F0E8"/>
    <rect x="478" y="470" width="20" height="30" fill="#D4654A"/>
    <rect x="412" y="520" width="20" height="30" fill="#F5F0E8"/>
    <rect x="445" y="520" width="20" height="30" fill="#D4654A"/>
    <rect x="478" y="520" width="20" height="30" fill="#F5F0E8"/>

    <rect x="535" y="520" width="85" height="180"/>
    <rect x="550" y="550" width="16" height="24" fill="#F5F0E8"/>
    <rect x="575" y="550" width="16" height="24" fill="#F5F0E8"/>
    <rect x="550" y="600" width="16" height="24" fill="#D9A441"/>
    <rect x="575" y="600" width="16" height="24" fill="#F5F0E8"/>
    <rect x="550" y="650" width="16" height="24" fill="#F5F0E8"/>
    <rect x="575" y="650" width="16" height="24" fill="#D9A441"/>
  </g>

  <!-- Two figures walking -->
  <g transform="translate(300, 660)">
    <circle cx="0" cy="-38" r="18" fill="#D4654A"/>
    <rect x="-14" y="-20" width="28" height="55" rx="6" fill="#D4654A"/>
    <line x1="-8" y1="35" x2="-14" y2="65" stroke="#D4654A" stroke-width="7" stroke-linecap="round"/>
    <line x1="8" y1="35" x2="18" y2="65" stroke="#D4654A" stroke-width="7" stroke-linecap="round"/>
  </g>
  <g transform="translate(370, 663)">
    <circle cx="0" cy="-38" r="18" fill="#F5F0E8"/>
    <rect x="-14" y="-20" width="28" height="55" rx="6" fill="#F5F0E8"/>
    <line x1="-8" y1="35" x2="-18" y2="62" stroke="#F5F0E8" stroke-width="7" stroke-linecap="round"/>
    <line x1="8" y1="35" x2="14" y2="62" stroke="#F5F0E8" stroke-width="7" stroke-linecap="round"/>
  </g>

  <!-- Dog -->
  <g transform="translate(430, 715)">
    <ellipse cx="0" cy="0" rx="14" ry="9" fill="#D9A441"/>
    <circle cx="-12" cy="-6" r="6" fill="#D9A441"/>
    <circle cx="-14" cy="-8" r="2" fill="#19131D"/>
    <line x1="14" y1="-4" x2="22" y2="-12" stroke="#D9A441" stroke-width="3" stroke-linecap="round"/>
    <line x1="-8" y1="8" x2="-10" y2="18" stroke="#D9A441" stroke-width="3" stroke-linecap="round"/>
    <line x1="8" y1="8" x2="10" y2="18" stroke="#D9A441" stroke-width="3" stroke-linecap="round"/>
  </g>
</svg>