<svg width="1200" height="600" viewBox="0 0 1200 600" fill="none" xmlns="http://www.w3.org/2000/svg">
  <!-- "No, Childfree People Don't Hate Kids" - Love/warmth theme -->
  <!-- Layout: Two tall panels side by side -->

  <!-- Left - gold with large warm heart made of petals -->
  <rect x="0" y="0" width="600" height="600" fill="#D9A441"/>
  <g transform="translate(300, 300)">
    <!-- Heart shape made of overlapping circles (like a flower heart) -->
    <circle cx="-55" cy="-40" r="55" fill="#D4654A"/>
    <circle cx="55" cy="-40" r="55" fill="#D4654A"/>
    <circle cx="-75" cy="20" r="50" fill="#D4654A"/>
    <circle cx="75" cy="20" r="50" fill="#D4654A"/>
    <circle cx="-45" cy="75" r="45" fill="#D4654A"/>
    <circle cx="45" cy="75" r="45" fill="#D4654A"/>
    <circle cx="0" cy="100" r="40" fill="#D4654A"/>
    <!-- Warm center -->
    <circle cx="0" cy="20" r="50" fill="#F5F0E8"/>
    <circle cx="0" cy="20" r="28" fill="#2F7255"/>
  </g>

  <!-- Right top - green with friendly waving plant -->
  <rect x="600" y="0" width="600" height="350" fill="#2F7255"/>
  <g transform="translate(900, 200)">
    <!-- Friendly curving stems with flowers -->
    <path d="M-80 100 Q-80 20 -40 -20" stroke="#F5F0E8" stroke-width="10" fill="none" stroke-linecap="round"/>
    <path d="M0 100 Q0 40 20 0" stroke="#F5F0E8" stroke-width="10" fill="none" stroke-linecap="round"/>
    <path d="M80 100 Q80 30 50 -10" stroke="#F5F0E8" stroke-width="10" fill="none" stroke-linecap="round"/>
    <!-- Flower heads -->
    <circle cx="-40" cy="-40" r="30" fill="#D9A441"/>
    <circle cx="20" cy="-20" r="25" fill="#D4654A"/>
    <circle cx="50" cy="-30" r="28" fill="#D9A441"/>
    <!-- Small dots around -->
    <circle cx="-100" cy="40" r="8" fill="#F5F0E8"/>
    <circle cx="100" cy="60" r="6" fill="#F5F0E8"/>
    <circle cx="-60" cy="-80" r="7" fill="#F5F0E8"/>
  </g>

  <!-- Right bottom - coral with peaceful tulips -->
  <rect x="600" y="350" width="600" height="250" fill="#D4654A"/>
  <g transform="translate(900, 475)">
    <!-- Row of friendly tulips -->
    <g transform="translate(-100, 0)">
      <rect x="-3" y="-50" width="6" height="70" fill="#2F7255"/>
      <ellipse cx="-12" cy="-60" rx="12" ry="22" fill="#F5F0E8"/>
      <ellipse cx="0" cy="-70" rx="12" ry="22" fill="#F5F0E8"/>
      <ellipse cx="12" cy="-60" rx="12" ry="22" fill="#F5F0E8"/>
    </g>
    <g transform="translate(0, 10)">
      <rect x="-3" y="-50" width="6" height="70" fill="#2F7255"/>
      <ellipse cx="-12" cy="-60" rx="12" ry="22" fill="#D9A441"/>
      <ellipse cx="0" cy="-70" rx="12" ry="22" fill="#D9A441"/>
      <ellipse cx="12" cy="-60" rx="12" ry="22" fill="#D9A441"/>
    </g>
    <g transform="translate(100, -5)">
      <rect x="-3" y="-50" width="6" height="70" fill="#2F7255"/>
      <ellipse cx="-12" cy="-60" rx="12" ry="22" fill="#F5F0E8"/>
      <ellipse cx="0" cy="-70" rx="12" ry="22" fill="#F5F0E8"/>
      <ellipse cx="12" cy="-60" rx="12" ry="22" fill="#F5F0E8"/>
    </g>
  </g>
</svg>
