<svg width="1200" height="800" viewBox="0 0 1200 800" fill="none" xmlns="http://www.w3.org/2000/svg">
  <!-- "No, Childfree People Don't Hate Kids" - Warmth/kindness theme -->

  <!-- Left - gold with adult giving balloon to child (cool aunt/uncle energy) -->
  <rect x="0" y="0" width="600" height="800" fill="#D9A441"/>
  <g transform="translate(300, 380)">
    <!-- Adult figure - adult proportions -->
    <g transform="translate(-80, 0)">
      <circle cx="0" cy="-100" r="28" fill="#F5F0E8"/>
      <ellipse cx="0" cy="-5" rx="32" ry="60" fill="#F5F0E8"/>
      <!-- Legs -->
      <rect x="-20" y="50" width="16" height="90" rx="7" fill="#F5F0E8"/>
      <rect x="4" y="50" width="16" height="90" rx="7" fill="#F5F0E8"/>
      <!-- Arm reaching out -->
      <path d="M 28 -40 Q 70 -55 120 -80" stroke="#F5F0E8" stroke-width="14" stroke-linecap="round" fill="none"/>
    </g>

    <!-- Child figure (smaller) -->
    <g transform="translate(100, 50)">
      <circle cx="0" cy="-40" r="28" fill="#F5F0E8"/>
      <ellipse cx="0" cy="10" rx="25" ry="38" fill="#F5F0E8"/>
      <!-- Legs -->
      <rect x="-18" y="45" width="14" height="50" rx="6" fill="#F5F0E8"/>
      <rect x="4" y="45" width="14" height="50" rx="6" fill="#F5F0E8"/>
      <!-- Arm reaching up -->
      <path d="M -22 -15 Q -45 -45 -55 -75" stroke="#F5F0E8" stroke-width="12" stroke-linecap="round" fill="none"/>
    </g>

    <!-- Balloon being passed - gentle float -->
    <g transform="translate(40, -150)">
      <animateTransform attributeName="transform" type="translate" values="40,-150; 40,-158; 40,-150" dur="3s" repeatCount="indefinite" calcMode="spline" keySplines="0.4 0 0.6 1; 0.4 0 0.6 1"/>
      <ellipse cx="0" cy="0" rx="35" ry="42" fill="#D4654A"/>
      <path d="M 0 42 Q 8 70 0 95 Q -8 120 0 145" stroke="#D4654A" stroke-width="3" fill="none"/>
    </g>
  </g>

  <!-- Top right - navy with big heart containing small heart -->
  <rect x="600" y="0" width="600" height="450" fill="#19131D"/>
  <g transform="translate(900, 225)">
    <!-- Big heart -->
    <path d="M 0 75 C -8 55, -55 50, -75 15 C -95 -25, -75 -70, -40 -70 C -15 -70, 0 -50, 0 -35 C 0 -50, 15 -70, 40 -70 C 75 -70, 95 -25, 75 15 C 55 50, 8 55, 0 75" fill="#F5F0E8"/>
    <!-- Small heart inside - gentle pulse -->
    <g>
      <animateTransform attributeName="transform" type="scale" values="1; 1.08; 1" dur="2s" repeatCount="indefinite" calcMode="spline" keySplines="0.4 0 0.6 1; 0.4 0 0.6 1"/>
      <path d="M 0 25 C -8 15, -30 15, -30 -8 C -30 -28, -8 -35, 0 -20 C 8 -35, 30 -28, 30 -8 C 30 15, 8 15, 0 25" fill="#D4654A"/>
    </g>
  </g>

  <!-- Bottom right - coral with happy waving figures (kids) -->
  <rect x="600" y="450" width="600" height="350" fill="#D4654A"/>
  <g transform="translate(900, 600)">
    <!-- Three small happy figures waving -->
    <!-- Kid 1 -->
    <g transform="translate(-90, 0)">
      <circle cx="0" cy="-40" r="22" fill="#F5F0E8"/>
      <ellipse cx="0" cy="5" rx="20" ry="30" fill="#F5F0E8"/>
      <!-- Legs -->
      <rect x="-14" y="32" width="10" height="40" rx="5" fill="#F5F0E8"/>
      <rect x="4" y="32" width="10" height="40" rx="5" fill="#F5F0E8"/>
      <!-- Waving arm -->
      <path d="M 16 -12 Q 32 -35 42 -50" stroke="#F5F0E8" stroke-width="10" stroke-linecap="round" fill="none"/>
    </g>
    <!-- Kid 2 (middle, slightly forward) -->
    <g transform="translate(0, 10)">
      <circle cx="0" cy="-40" r="25" fill="#D9A441"/>
      <ellipse cx="0" cy="8" rx="22" ry="32" fill="#D9A441"/>
      <!-- Legs -->
      <rect x="-15" y="36" width="11" height="42" rx="5" fill="#D9A441"/>
      <rect x="4" y="36" width="11" height="42" rx="5" fill="#D9A441"/>
      <!-- Both arms up excited -->
      <path d="M -18 -12 Q -32 -40 -38 -55" stroke="#D9A441" stroke-width="10" stroke-linecap="round" fill="none"/>
      <path d="M 18 -12 Q 32 -40 38 -55" stroke="#D9A441" stroke-width="10" stroke-linecap="round" fill="none"/>
    </g>
    <!-- Kid 3 -->
    <g transform="translate(90, 5)">
      <circle cx="0" cy="-40" r="22" fill="#F5F0E8"/>
      <ellipse cx="0" cy="5" rx="20" ry="30" fill="#F5F0E8"/>
      <!-- Legs -->
      <rect x="-14" y="32" width="10" height="40" rx="5" fill="#F5F0E8"/>
      <rect x="4" y="32" width="10" height="40" rx="5" fill="#F5F0E8"/>
      <!-- Waving arm -->
      <path d="M -16 -12 Q -32 -35 -42 -50" stroke="#F5F0E8" stroke-width="10" stroke-linecap="round" fill="none"/>
    </g>
  </g>
</svg>
