<svg width="1200" height="800" viewBox="0 0 1200 800" fill="none" xmlns="http://www.w3.org/2000/svg">
  <!-- "Fear of Childbirth? You're Not Alone" - Combined imagery -->

  <!-- Top left - Forest: Three figures holding hands (support/community) -->
  <rect x="0" y="0" width="680" height="500" fill="#2F7255"/>

  <g transform="translate(340, 250)">
    <!-- Left figure (cream/white) - woman in dress -->
    <g transform="translate(-100, 0)">
      <circle cx="0" cy="-85" r="22" fill="#F5F0E8"/>
      <!-- Dress (A-line/triangle shape) -->
      <path d="M 0 -62 L -28 50 L 28 50 Z" fill="#F5F0E8"/>
      <!-- Legs -->
      <line x1="-10" y1="50" x2="-12" y2="115" stroke="#F5F0E8" stroke-width="7" stroke-linecap="round"/>
      <line x1="10" y1="50" x2="12" y2="115" stroke="#F5F0E8" stroke-width="7" stroke-linecap="round"/>
      <!-- Arm reaching down to center -->
      <line x1="15" y1="-35" x2="52" y2="-15" stroke="#F5F0E8" stroke-width="7" stroke-linecap="round"/>
    </g>

    <!-- Center figure (gold) - woman in dress -->
    <g transform="translate(0, 0)">
      <circle cx="0" cy="-85" r="22" fill="#D9A441"/>
      <!-- Dress (A-line/triangle shape) -->
      <path d="M 0 -62 L -28 50 L 28 50 Z" fill="#D9A441"/>
      <!-- Legs -->
      <line x1="-10" y1="50" x2="-12" y2="115" stroke="#D9A441" stroke-width="7" stroke-linecap="round"/>
      <line x1="10" y1="50" x2="12" y2="115" stroke="#D9A441" stroke-width="7" stroke-linecap="round"/>
      <!-- Arms down to hold hands -->
      <line x1="-15" y1="-35" x2="-52" y2="-15" stroke="#D9A441" stroke-width="7" stroke-linecap="round"/>
      <line x1="15" y1="-35" x2="52" y2="-15" stroke="#D9A441" stroke-width="7" stroke-linecap="round"/>
    </g>

    <!-- Right figure (coral) - woman in dress -->
    <g transform="translate(100, 0)">
      <circle cx="0" cy="-85" r="22" fill="#D4654A"/>
      <!-- Dress (A-line/triangle shape) -->
      <path d="M 0 -62 L -28 50 L 28 50 Z" fill="#D4654A"/>
      <!-- Legs -->
      <line x1="-10" y1="50" x2="-12" y2="115" stroke="#D4654A" stroke-width="7" stroke-linecap="round"/>
      <line x1="10" y1="50" x2="12" y2="115" stroke="#D4654A" stroke-width="7" stroke-linecap="round"/>
      <!-- Arm reaching down to center -->
      <line x1="-15" y1="-35" x2="-52" y2="-15" stroke="#D4654A" stroke-width="7" stroke-linecap="round"/>
    </g>
  </g>

  <!-- Small hearts -->
  <g fill="#D9A441" opacity="0.5">
    <path transform="translate(80, 70)" d="M 0 3 C -1.5 0.5, -5 0.5, -6.5 4 C -8 9, -3 13, 0 17 C 3 13, 8 9, 6.5 4 C 5 0.5, 1.5 0.5, 0 3"/>
    <path transform="translate(580, 50)" d="M 0 3 C -1.5 0.5, -5 0.5, -6.5 4 C -8 9, -3 13, 0 17 C 3 13, 8 9, 6.5 4 C 5 0.5, 1.5 0.5, 0 3"/>
  </g>

  <!-- Bottom left - Coral: Egg with sperm (choice) -->
  <rect x="0" y="500" width="680" height="300" fill="#D4654A"/>

  <g transform="translate(340, 650)">
    <!-- Egg - large circle with glow -->
    <circle cx="60" cy="0" r="70" fill="#F5F0E8" opacity="0.2"/>
    <circle cx="60" cy="0" r="55" fill="#F5F0E8"/>

    <!-- Protective barrier/glow around egg -->
    <circle cx="60" cy="0" r="75" fill="none" stroke="#F5F0E8" stroke-width="3" opacity="0.3"/>

    <!-- Sperm facing egg but not touching -->
    <!-- Sperm 1 - closest, facing egg -->
    <g transform="translate(-70, -15)">
      <ellipse cx="0" cy="0" rx="9" ry="6" fill="#D9A441"/>
      <path d="M -9 0 Q -22 -6 -32 0 Q -42 6 -52 0 Q -60 -5 -68 0" stroke="#D9A441" stroke-width="2.5" fill="none" stroke-linecap="round"/>
    </g>

    <!-- Sperm 2 - middle, slightly lower -->
    <g transform="translate(-95, 25)">
      <ellipse cx="0" cy="0" rx="8" ry="5" fill="#D9A441" opacity="0.85"/>
      <path d="M -8 0 Q -18 5 -28 0 Q -38 -5 -46 0 Q -54 4 -60 0" stroke="#D9A441" stroke-width="2" fill="none" stroke-linecap="round" opacity="0.85"/>
    </g>

    <!-- Sperm 3 - further back, upper -->
    <g transform="translate(-130, -40)">
      <ellipse cx="0" cy="0" rx="7" ry="5" fill="#D9A441" opacity="0.6"/>
      <path d="M -7 0 Q -16 -4 -24 0 Q -32 4 -40 0 Q -46 -3 -52 0" stroke="#D9A441" stroke-width="1.8" fill="none" stroke-linecap="round" opacity="0.6"/>
    </g>

    <!-- Sperm 4 - furthest back -->
    <g transform="translate(-165, 5)">
      <ellipse cx="0" cy="0" rx="6" ry="4" fill="#D9A441" opacity="0.45"/>
      <path d="M -6 0 Q -14 3 -22 0 Q -28 -3 -36 0 Q -42 2 -46 0" stroke="#D9A441" stroke-width="1.5" fill="none" stroke-linecap="round" opacity="0.45"/>
    </g>

    <!-- Exclamation mark next to egg -->
    <g transform="translate(160, 0)">
      <rect x="-6" y="-45" width="12" height="55" rx="6" fill="#F5F0E8" opacity="0.7"/>
      <circle cx="0" cy="30" r="8" fill="#F5F0E8" opacity="0.7"/>
    </g>
  </g>

  <!-- Top right - Gold: Cream egg with slash -->
  <rect x="680" y="0" width="520" height="420" fill="#D9A441"/>

  <g transform="translate(940, 210)">
    <!-- Egg shape (pointed at top) -->
    <path d="M 0 -110
             C 70 -90, 90 -20, 90 30
             C 90 80, 50 120, 0 120
             C -50 120, -90 80, -90 30
             C -90 -20, -70 -90, 0 -110 Z"
          fill="#F5F0E8"/>

    <!-- Slash through it -->
    <line x1="-80" y1="100" x2="80" y2="-90" stroke="#D4654A" stroke-width="12" stroke-linecap="round"/>
  </g>

  <!-- Decorative dots -->
  <g fill="#2F7255" opacity="0.3">
    <circle cx="730" cy="45" r="6"/>
    <circle cx="755" cy="70" r="4"/>
    <circle cx="1150" cy="370" r="8"/>
    <circle cx="1125" cy="345" r="5"/>
  </g>

  <!-- Bottom right - Navy: Starry sky (you're not alone) -->
  <rect x="680" y="420" width="520" height="380" fill="#19131D"/>

  <!-- Sparkles scattered across the night sky -->
  <g fill="#D9A441">
    <!-- Larger sparkles -->
    <path transform="translate(750, 480) scale(0.5)" d="M 0 -16 L 3 -3 L 16 0 L 3 3 L 0 16 L -3 3 L -16 0 L -3 -3 Z"/>
    <path transform="translate(920, 520) scale(0.6)" d="M 0 -16 L 3 -3 L 16 0 L 3 3 L 0 16 L -3 3 L -16 0 L -3 -3 Z"/>
    <path transform="translate(1100, 470) scale(0.5)" d="M 0 -16 L 3 -3 L 16 0 L 3 3 L 0 16 L -3 3 L -16 0 L -3 -3 Z"/>
    <path transform="translate(820, 620) scale(0.6)" d="M 0 -16 L 3 -3 L 16 0 L 3 3 L 0 16 L -3 3 L -16 0 L -3 -3 Z"/>
    <path transform="translate(1050, 600) scale(0.5)" d="M 0 -16 L 3 -3 L 16 0 L 3 3 L 0 16 L -3 3 L -16 0 L -3 -3 Z"/>
    <path transform="translate(980, 700) scale(0.6)" d="M 0 -16 L 3 -3 L 16 0 L 3 3 L 0 16 L -3 3 L -16 0 L -3 -3 Z"/>
    <path transform="translate(720, 720) scale(0.5)" d="M 0 -16 L 3 -3 L 16 0 L 3 3 L 0 16 L -3 3 L -16 0 L -3 -3 Z"/>
    <path transform="translate(1150, 680) scale(0.5)" d="M 0 -16 L 3 -3 L 16 0 L 3 3 L 0 16 L -3 3 L -16 0 L -3 -3 Z"/>

    <!-- Medium sparkles -->
    <path transform="translate(780, 550) scale(0.4)" d="M 0 -16 L 3 -3 L 16 0 L 3 3 L 0 16 L -3 3 L -16 0 L -3 -3 Z"/>
    <path transform="translate(870, 470) scale(0.4)" d="M 0 -16 L 3 -3 L 16 0 L 3 3 L 0 16 L -3 3 L -16 0 L -3 -3 Z"/>
    <path transform="translate(1000, 550) scale(0.4)" d="M 0 -16 L 3 -3 L 16 0 L 3 3 L 0 16 L -3 3 L -16 0 L -3 -3 Z"/>
    <path transform="translate(1080, 520) scale(0.4)" d="M 0 -16 L 3 -3 L 16 0 L 3 3 L 0 16 L -3 3 L -16 0 L -3 -3 Z"/>
    <path transform="translate(730, 650) scale(0.4)" d="M 0 -16 L 3 -3 L 16 0 L 3 3 L 0 16 L -3 3 L -16 0 L -3 -3 Z"/>
    <path transform="translate(900, 750) scale(0.4)" d="M 0 -16 L 3 -3 L 16 0 L 3 3 L 0 16 L -3 3 L -16 0 L -3 -3 Z"/>
    <path transform="translate(1120, 580) scale(0.4)" d="M 0 -16 L 3 -3 L 16 0 L 3 3 L 0 16 L -3 3 L -16 0 L -3 -3 Z"/>
    <path transform="translate(960, 450) scale(0.4)" d="M 0 -16 L 3 -3 L 16 0 L 3 3 L 0 16 L -3 3 L -16 0 L -3 -3 Z"/>

    <!-- Small sparkles -->
    <path transform="translate(850, 510) scale(0.25)" d="M 0 -16 L 3 -3 L 16 0 L 3 3 L 0 16 L -3 3 L -16 0 L -3 -3 Z"/>
    <path transform="translate(940, 580) scale(0.25)" d="M 0 -16 L 3 -3 L 16 0 L 3 3 L 0 16 L -3 3 L -16 0 L -3 -3 Z"/>
    <path transform="translate(1020, 480) scale(0.25)" d="M 0 -16 L 3 -3 L 16 0 L 3 3 L 0 16 L -3 3 L -16 0 L -3 -3 Z"/>
    <path transform="translate(770, 700) scale(0.25)" d="M 0 -16 L 3 -3 L 16 0 L 3 3 L 0 16 L -3 3 L -16 0 L -3 -3 Z"/>
    <path transform="translate(1070, 650) scale(0.25)" d="M 0 -16 L 3 -3 L 16 0 L 3 3 L 0 16 L -3 3 L -16 0 L -3 -3 Z"/>
    <path transform="translate(880, 680) scale(0.25)" d="M 0 -16 L 3 -3 L 16 0 L 3 3 L 0 16 L -3 3 L -16 0 L -3 -3 Z"/>
    <path transform="translate(1140, 740) scale(0.25)" d="M 0 -16 L 3 -3 L 16 0 L 3 3 L 0 16 L -3 3 L -16 0 L -3 -3 Z"/>
    <path transform="translate(710, 580) scale(0.25)" d="M 0 -16 L 3 -3 L 16 0 L 3 3 L 0 16 L -3 3 L -16 0 L -3 -3 Z"/>
    <path transform="translate(990, 640) scale(0.25)" d="M 0 -16 L 3 -3 L 16 0 L 3 3 L 0 16 L -3 3 L -16 0 L -3 -3 Z"/>
    <path transform="translate(830, 760) scale(0.25)" d="M 0 -16 L 3 -3 L 16 0 L 3 3 L 0 16 L -3 3 L -16 0 L -3 -3 Z"/>

    <!-- Tiny twinkles -->
    <path transform="translate(800, 490) scale(0.18)" opacity="0.7" d="M 0 -16 L 3 -3 L 16 0 L 3 3 L 0 16 L -3 3 L -16 0 L -3 -3 Z"/>
    <path transform="translate(950, 490) scale(0.18)" opacity="0.7" d="M 0 -16 L 3 -3 L 16 0 L 3 3 L 0 16 L -3 3 L -16 0 L -3 -3 Z"/>
    <path transform="translate(1030, 560) scale(0.18)" opacity="0.7" d="M 0 -16 L 3 -3 L 16 0 L 3 3 L 0 16 L -3 3 L -16 0 L -3 -3 Z"/>
    <path transform="translate(760, 620) scale(0.18)" opacity="0.7" d="M 0 -16 L 3 -3 L 16 0 L 3 3 L 0 16 L -3 3 L -16 0 L -3 -3 Z"/>
    <path transform="translate(1100, 620) scale(0.18)" opacity="0.7" d="M 0 -16 L 3 -3 L 16 0 L 3 3 L 0 16 L -3 3 L -16 0 L -3 -3 Z"/>
    <path transform="translate(860, 730) scale(0.18)" opacity="0.7" d="M 0 -16 L 3 -3 L 16 0 L 3 3 L 0 16 L -3 3 L -16 0 L -3 -3 Z"/>
    <path transform="translate(1010, 720) scale(0.18)" opacity="0.7" d="M 0 -16 L 3 -3 L 16 0 L 3 3 L 0 16 L -3 3 L -16 0 L -3 -3 Z"/>
    <path transform="translate(740, 760) scale(0.18)" opacity="0.7" d="M 0 -16 L 3 -3 L 16 0 L 3 3 L 0 16 L -3 3 L -16 0 L -3 -3 Z"/>
  </g>
</svg>
