<svg width="1200" height="800" viewBox="0 0 1200 800" fill="none" xmlns="http://www.w3.org/2000/svg">
  <!-- "Is It Selfish to Not Want Kids?" - Larger central visual with more arrows -->

  <!-- Background panels - asymmetric arrangement -->
  <rect x="0" y="0" width="480" height="520" fill="#2F7255"/>
  <rect x="480" y="0" width="720" height="340" fill="#D9A441"/>
  <rect x="480" y="340" width="720" height="460" fill="#19131D"/>
  <rect x="0" y="520" width="480" height="280" fill="#D4654A"/>

  <!-- Accent shapes - varied like social quotes -->
  <!-- Half circle bleeding off top-left -->
  <circle cx="0" cy="0" r="140" fill="#D4654A"/>

  <!-- Rectangle accent on marigold -->
  <rect x="920" y="0" width="80" height="180" fill="#2F7255" opacity="0.4"/>

  <!-- Small square on coral -->
  <rect x="120" y="620" width="50" height="50" rx="8" fill="#D9A441"/>

  <!-- Arc/half circle on dark -->
  <circle cx="1200" cy="650" r="100" fill="#D4654A" opacity="0.3"/>

  <!-- Central visual - concentric circles with chevrons -->
  <g transform="translate(560, 400)">
    <!-- Center circle -->
    <circle cx="0" cy="0" r="100" fill="#F5F0E8"/>
    <circle cx="0" cy="0" r="65" fill="#19131D"/>
    <circle cx="0" cy="0" r="35" fill="#F5F0E8"/>

    <!-- Chevrons pointing inward - all cream, cardinal larger -->
    <g fill="#F5F0E8">
      <!-- Cardinal directions - larger -->
      <polygon points="0,-150 -35,-230 0,-195 35,-230"/>
      <polygon points="0,150 -35,230 0,195 35,230"/>
      <polygon points="-150,0 -230,-35 -195,0 -230,35"/>
      <polygon points="150,0 230,-35 195,0 230,35"/>

      <!-- Diagonal directions - smaller -->
      <polygon points="-106,-106 -140,-158 -128,-128 -158,-140"/>
      <polygon points="106,-106 140,-158 128,-128 158,-140"/>
      <polygon points="-106,106 -140,158 -128,128 -158,140"/>
      <polygon points="106,106 140,158 128,128 158,140"/>
    </g>
  </g>
</svg>
