<svg width="1200" height="600" viewBox="0 0 1200 600" fill="none" xmlns="http://www.w3.org/2000/svg">
  <!-- "When Your Partner Wants Kids But You Don't" - Diverging paths theme -->
  <!-- Layout: Large top section, two bottom panels -->

  <!-- Top - coral with two trees growing in different directions -->
  <rect x="0" y="0" width="1200" height="380" fill="#D4654A"/>
  <g transform="translate(600, 350)">
    <!-- Ground -->
    <rect x="-400" y="0" width="800" height="12" fill="#2F7255"/>

    <!-- Left tree - leaning left -->
    <g transform="translate(-150, 0)">
      <rect x="-6" y="-180" width="12" height="180" fill="#2F7255" transform="rotate(15)"/>
      <!-- Branches with leaves -->
      <g transform="rotate(15)">
        <ellipse cx="-50" cy="-120" rx="30" ry="16" fill="#2F7255" transform="rotate(-40 -50 -120)"/>
        <ellipse cx="-40" cy="-160" rx="25" ry="13" fill="#2F7255" transform="rotate(-30 -40 -160)"/>
        <circle cx="-20" cy="-200" r="35" fill="#F5F0E8"/>
      </g>
    </g>

    <!-- Right tree - leaning right -->
    <g transform="translate(150, 0)">
      <rect x="-6" y="-200" width="12" height="200" fill="#2F7255" transform="rotate(-15)"/>
      <!-- Branches with different style leaves -->
      <g transform="rotate(-15)">
        <ellipse cx="50" cy="-130" rx="30" ry="16" fill="#2F7255" transform="rotate(40 50 -130)"/>
        <ellipse cx="40" cy="-175" rx="25" ry="13" fill="#2F7255" transform="rotate(30 40 -175)"/>
        <circle cx="20" cy="-220" r="35" fill="#D9A441"/>
      </g>
    </g>
  </g>

  <!-- Bottom left - green with interlinked circles breaking apart -->
  <rect x="0" y="380" width="550" height="220" fill="#2F7255"/>
  <g transform="translate(275, 490)">
    <!-- Two circles that were linked -->
    <circle cx="-45" cy="0" r="50" stroke="#F5F0E8" stroke-width="10" fill="none"/>
    <circle cx="45" cy="0" r="50" stroke="#F5F0E8" stroke-width="10" fill="none"/>
  </g>

  <!-- Bottom right - gold with single strong flower -->
  <rect x="550" y="380" width="650" height="220" fill="#D9A441"/>
  <g transform="translate(875, 490)">
    <!-- Single confident bloom -->
    <rect x="-5" y="-20" width="10" height="80" fill="#2F7255"/>
    <circle cx="0" cy="-30" r="28" fill="#D4654A"/>
    <circle cx="28" cy="-10" r="28" fill="#D4654A"/>
    <circle cx="17" cy="22" r="28" fill="#D4654A"/>
    <circle cx="-17" cy="22" r="28" fill="#D4654A"/>
    <circle cx="-28" cy="-10" r="28" fill="#D4654A"/>
    <circle cx="0" cy="0" r="18" fill="#F5F0E8"/>
  </g>
</svg>
