<svg width="1200" height="800" viewBox="0 0 1200 800" fill="none" xmlns="http://www.w3.org/2000/svg">
  <!-- "When Your Partner Wants Kids But You Don't" - Diverging paths theme -->
  <!-- Layout: Large top section, two bottom panels -->

  <!-- Top - green with directional signpost -->
  <rect x="0" y="0" width="1200" height="500" fill="#2F7255"/>

  <g transform="translate(600, 220) scale(1.5)">
    <!-- Post -->
    <rect x="-12" y="-80" width="24" height="220" rx="4" fill="#F5F0E8"/>

    <!-- Left arrow sign -->
    <g transform="translate(0, -50)">
      <path d="M -180 0 L -160 -28 L -160 -14 L 0 -14 L 0 14 L -160 14 L -160 28 Z" fill="#D9A441"/>
    </g>

    <!-- Right arrow sign -->
    <g transform="translate(0, 15)">
      <path d="M 180 0 L 160 -28 L 160 -14 L 0 -14 L 0 14 L 160 14 L 160 28 Z" fill="#D4654A"/>
    </g>
  </g>

  <!-- Bottom left - navy with animated circles drifting apart -->
  <rect x="0" y="500" width="550" height="300" fill="#19131D"/>
  <g transform="translate(275, 650)">
    <!-- Left circle - drifts left -->
    <circle cx="0" cy="0" r="50" stroke="#F5F0E8" stroke-width="10" fill="none">
      <animate attributeName="cx" values="-45;-65;-45" dur="3s" repeatCount="indefinite" calcMode="spline" keySplines="0.4 0 0.2 1; 0.4 0 0.2 1"/>
    </circle>
    <!-- Right circle - drifts right -->
    <circle cx="0" cy="0" r="50" stroke="#F5F0E8" stroke-width="10" fill="none">
      <animate attributeName="cx" values="45;65;45" dur="3s" repeatCount="indefinite" calcMode="spline" keySplines="0.4 0 0.2 1; 0.4 0 0.2 1"/>
    </circle>
  </g>

  <!-- Bottom right - gold with scale (weighing decision) -->
  <rect x="550" y="500" width="650" height="300" fill="#D9A441"/>

  <g transform="translate(875, 650)">
    <!-- Scale post -->
    <rect x="-6" y="-60" width="12" height="120" rx="4" fill="#2F7255"/>
    <!-- Base -->
    <ellipse cx="0" cy="65" rx="50" ry="12" fill="#2F7255"/>

    <!-- Balance beam (tilted) -->
    <rect x="-120" y="-65" width="240" height="10" rx="4" fill="#F5F0E8" transform="rotate(-12 0 -60)"/>

    <!-- Left pan strings (lower) -->
    <line x1="-100" y1="-30" x2="-100" y2="25" stroke="#F5F0E8" stroke-width="4"/>
    <line x1="-80" y1="-35" x2="-80" y2="20" stroke="#F5F0E8" stroke-width="4"/>
    <!-- Left pan (lower - heavier) -->
    <ellipse cx="-90" cy="35" rx="40" ry="12" fill="#F5F0E8"/>

    <!-- Right pan strings (higher) -->
    <line x1="100" y1="-80" x2="100" y2="-30" stroke="#F5F0E8" stroke-width="4"/>
    <line x1="80" y1="-75" x2="80" y2="-25" stroke="#F5F0E8" stroke-width="4"/>
    <!-- Right pan (higher - lighter) -->
    <ellipse cx="90" cy="-20" rx="40" ry="12" fill="#F5F0E8"/>

    <!-- Pivot point -->
    <circle cx="0" cy="-60" r="12" fill="#2F7255"/>
  </g>
</svg>
