<svg width="1200" height="800" viewBox="0 0 1200 800" fill="none" xmlns="http://www.w3.org/2000/svg">
  <!-- "Childfree Sterilization: What the Research Says About Regret" -->
  <!-- Theme: Research shows positive outcomes, confidence, peace -->

  <!-- Left - navy with clipboard and checkmark (research validated) -->
  <rect x="0" y="0" width="600" height="800" fill="#19131D"/>
  <g transform="translate(300, 400) scale(1.2)">
    <!-- Clipboard -->
    <rect x="-80" y="-100" width="160" height="200" rx="8" fill="#F5F0E8"/>
    <!-- Clip at top -->
    <rect x="-30" y="-115" width="60" height="25" rx="6" fill="#D9A441"/>
    <rect x="-20" y="-120" width="40" height="15" rx="4" fill="#D9A441"/>

    <!-- Chart bars (showing low regret = small bar, high satisfaction = tall bar) -->
    <rect x="-55" y="30" width="30" height="45" rx="4" fill="#D4654A" opacity="0.4"/>
    <rect x="-15" y="-20" width="30" height="95" rx="4" fill="#2F7255"/>
    <rect x="25" y="-40" width="30" height="115" rx="4" fill="#2F7255"/>

    <!-- Labels suggestion lines -->
    <rect x="-55" y="85" width="30" height="4" rx="2" fill="#19131D" opacity="0.15"/>
    <rect x="-15" y="85" width="30" height="4" rx="2" fill="#19131D" opacity="0.15"/>
    <rect x="25" y="85" width="30" height="4" rx="2" fill="#19131D" opacity="0.15"/>

    <!-- Big checkmark overlay -->
    <g transform="translate(50, -60)">
      <circle cx="0" cy="0" r="45" fill="#2F7255"/>
      <path d="M -20 0 L -5 15 L 22 -15" stroke="#F5F0E8" stroke-width="10" stroke-linecap="round" stroke-linejoin="round" fill="none"/>
    </g>
  </g>

  <!-- Top right - coral with peaceful person -->
  <rect x="600" y="0" width="600" height="450" fill="#D4654A"/>
  <g transform="translate(900, 225)">
    <!-- Person standing confident -->
    <circle cx="0" cy="-70" r="40" fill="#F5F0E8"/>
    <ellipse cx="0" cy="15" rx="45" ry="60" fill="#F5F0E8"/>
    <!-- Arms at sides, relaxed confident pose -->
    <path d="M -40 -20 Q -55 0 -55 30 Q -55 55 -48 70" stroke="#F5F0E8" stroke-width="16" stroke-linecap="round" fill="none"/>
    <path d="M 40 -20 Q 55 0 55 30 Q 55 55 48 70" stroke="#F5F0E8" stroke-width="16" stroke-linecap="round" fill="none"/>
    <!-- Legs -->
    <rect x="-28" y="70" width="20" height="65" rx="9" fill="#F5F0E8"/>
    <rect x="8" y="70" width="20" height="65" rx="9" fill="#F5F0E8"/>
    <!-- Heart on chest (at peace with decision) -->
    <path d="M 0 0 C -5 -8, -18 -8, -18 5 C -18 16, 0 28, 0 28 C 0 28, 18 16, 18 5 C 18 -8, 5 -8, 0 0" fill="#D9A441"/>
  </g>

  <!-- Bottom right - gold with butterfly (transformation/freedom) -->
  <rect x="600" y="450" width="600" height="350" fill="#D9A441"/>
  <g transform="translate(900, 625)">
    <!-- Butterfly wings - elegant curved shapes -->
    <!-- Left upper wing -->
    <path d="M -8 -15 C -20 -80, -90 -90, -95 -40 C -100 5, -50 10, -8 5" fill="#F5F0E8"/>
    <path d="M -12 -12 C -22 -60, -75 -70, -78 -35 C -82 -5, -45 5, -12 2" fill="#D4654A"/>

    <!-- Left lower wing -->
    <path d="M -8 10 C -25 15, -70 25, -75 55 C -78 80, -40 85, -8 45" fill="#F5F0E8"/>
    <path d="M -10 15 C -22 20, -55 28, -58 50 C -60 68, -35 70, -10 40" fill="#D4654A"/>

    <!-- Right upper wing -->
    <path d="M 8 -15 C 20 -80, 90 -90, 95 -40 C 100 5, 50 10, 8 5" fill="#F5F0E8"/>
    <path d="M 12 -12 C 22 -60, 75 -70, 78 -35 C 82 -5, 45 5, 12 2" fill="#D4654A"/>

    <!-- Right lower wing -->
    <path d="M 8 10 C 25 15, 70 25, 75 55 C 78 80, 40 85, 8 45" fill="#F5F0E8"/>
    <path d="M 10 15 C 22 20, 55 28, 58 50 C 60 68, 35 70, 10 40" fill="#D4654A"/>

    <!-- Body -->
    <ellipse cx="0" cy="15" rx="8" ry="45" fill="#19131D"/>
    <!-- Head -->
    <circle cx="0" cy="-35" r="10" fill="#19131D"/>

    <!-- Antennae -->
    <path d="M -4 -44 Q -18 -65 -25 -75" stroke="#19131D" stroke-width="3" fill="none" stroke-linecap="round"/>
    <path d="M 4 -44 Q 18 -65 25 -75" stroke="#19131D" stroke-width="3" fill="none" stroke-linecap="round"/>
    <circle cx="-25" cy="-75" r="4" fill="#D4654A"/>
    <circle cx="25" cy="-75" r="4" fill="#D4654A"/>
  </g>
</svg>
