<svg width="700" height="500" viewBox="0 0 700 500" fill="none" xmlns="http://www.w3.org/2000/svg">

  <!-- Pure geometric Bauhaus style - quarter circles, semicircles, wedges -->

  <!-- 1: Quarter-circle leaves alternating (like the reference) -->
  <g transform="translate(90, 120)">
    <!-- Stem -->
    <rect x="-4" y="-60" width="8" height="120" fill="#1A1A1A"/>
    <!-- Quarter circle leaves - LEFT side -->
    <path d="M-4 -50 L-4 -20 A30 30 0 0 1 -34 -50 Z" fill="#1A1A1A"/>
    <path d="M-4 -10 L-4 20 A30 30 0 0 1 -34 -10 Z" fill="#1A1A1A"/>
    <!-- Quarter circle leaves - RIGHT side -->
    <path d="M4 -30 L4 0 A30 30 0 0 0 34 -30 Z" fill="#1A1A1A"/>
    <path d="M4 10 L4 40 A30 30 0 0 0 34 10 Z" fill="#1A1A1A"/>
    <text x="0" y="90" text-anchor="middle" font-family="sans-serif" font-size="10" fill="#666">1</text>
  </g>

  <!-- 2: Semicircle leaves alternating -->
  <g transform="translate(200, 120)">
    <rect x="-4" y="-60" width="8" height="120" fill="#1A1A1A"/>
    <!-- Semicircles alternating -->
    <path d="M-4 -45 A20 20 0 0 1 -4 -5" fill="#1A1A1A"/>
    <path d="M4 -25 A20 20 0 0 0 4 15" fill="#1A1A1A"/>
    <path d="M-4 -5 A18 18 0 0 1 -4 31" fill="#1A1A1A"/>
    <circle cx="-24" cy="-25" r="20" fill="#1A1A1A"/>
    <circle cx="24" cy="-5" r="20" fill="#1A1A1A"/>
    <circle cx="-22" cy="13" r="18" fill="#1A1A1A"/>
    <text x="0" y="90" text-anchor="middle" font-family="sans-serif" font-size="10" fill="#666">2</text>
  </g>

  <!-- 3: Wedge/pie slice leaves -->
  <g transform="translate(310, 120)">
    <rect x="-4" y="-55" width="8" height="110" fill="#1A1A1A"/>
    <!-- Pie slice wedges -->
    <path d="M-4 -45 L-35 -60 A35 35 0 0 1 -35 -30 Z" fill="#1A1A1A"/>
    <path d="M4 -20 L35 -35 A35 35 0 0 0 35 -5 Z" fill="#1A1A1A"/>
    <path d="M-4 5 L-32 -8 A32 32 0 0 1 -32 18 Z" fill="#1A1A1A"/>
    <path d="M4 28 L32 15 A32 32 0 0 0 32 41 Z" fill="#1A1A1A"/>
    <text x="0" y="90" text-anchor="middle" font-family="sans-serif" font-size="10" fill="#666">3</text>
  </g>

  <!-- 4: Simple rounded rect leaves (bold) -->
  <g transform="translate(420, 120)">
    <rect x="-5" y="-55" width="10" height="110" rx="5" fill="#1A1A1A"/>
    <!-- Bold rounded leaves -->
    <rect x="-40" y="-55" width="35" height="22" rx="11" fill="#1A1A1A"/>
    <rect x="5" y="-30" width="35" height="22" rx="11" fill="#1A1A1A"/>
    <rect x="-40" y="-5" width="35" height="22" rx="11" fill="#1A1A1A"/>
    <rect x="5" y="20" width="32" height="20" rx="10" fill="#1A1A1A"/>
    <text x="0" y="90" text-anchor="middle" font-family="sans-serif" font-size="10" fill="#666">4</text>
  </g>

  <!-- 5: Circular leaves on stem -->
  <g transform="translate(530, 120)">
    <rect x="-4" y="-50" width="8" height="100" fill="#1A1A1A"/>
    <circle cx="-22" cy="-40" r="18" fill="#1A1A1A"/>
    <circle cx="22" cy="-15" r="18" fill="#1A1A1A"/>
    <circle cx="-20" cy="10" r="16" fill="#1A1A1A"/>
    <circle cx="18" cy="32" r="14" fill="#1A1A1A"/>
    <text x="0" y="90" text-anchor="middle" font-family="sans-serif" font-size="10" fill="#666">5</text>
  </g>

  <!-- 6: Tight quarter circles (compact) -->
  <g transform="translate(640, 120)">
    <rect x="-5" y="-45" width="10" height="90" fill="#1A1A1A"/>
    <path d="M-5 -40 L-5 -15 A25 25 0 0 1 -30 -40 Z" fill="#1A1A1A"/>
    <path d="M5 -22 L5 3 A25 25 0 0 0 30 -22 Z" fill="#1A1A1A"/>
    <path d="M-5 -2 L-5 23 A25 25 0 0 1 -30 -2 Z" fill="#1A1A1A"/>
    <path d="M5 18 L5 38 A20 20 0 0 0 25 18 Z" fill="#1A1A1A"/>
    <text x="0" y="90" text-anchor="middle" font-family="sans-serif" font-size="10" fill="#666">6</text>
  </g>


  <!-- ROW 2: More compact/logo-ready versions -->

  <!-- 7: Compact sprout -->
  <g transform="translate(90, 300)">
    <rect x="-5" y="-10" width="10" height="50" fill="#1A1A1A"/>
    <path d="M-5 -25 L-5 5 A30 30 0 0 1 -35 -25 Z" fill="#1A1A1A"/>
    <path d="M5 -25 L5 5 A30 30 0 0 0 35 -25 Z" fill="#1A1A1A"/>
    <text x="0" y="70" text-anchor="middle" font-family="sans-serif" font-size="10" fill="#666">7</text>
  </g>

  <!-- 8: Three-tier growth -->
  <g transform="translate(200, 300)">
    <rect x="-4" y="-5" width="8" height="45" fill="#1A1A1A"/>
    <!-- Top pair -->
    <path d="M-4 -35 L-4 -5 A30 30 0 0 1 -34 -35 Z" fill="#1A1A1A"/>
    <path d="M4 -35 L4 -5 A30 30 0 0 0 34 -35 Z" fill="#1A1A1A"/>
    <!-- Bottom pair (smaller) -->
    <path d="M-4 0 L-4 20 A20 20 0 0 1 -24 0 Z" fill="#1A1A1A"/>
    <path d="M4 0 L4 20 A20 20 0 0 0 24 0 Z" fill="#1A1A1A"/>
    <text x="0" y="70" text-anchor="middle" font-family="sans-serif" font-size="10" fill="#666">8</text>
  </g>

  <!-- 9: Upward bloom -->
  <g transform="translate(310, 300)">
    <rect x="-4" y="0" width="8" height="40" fill="#1A1A1A"/>
    <!-- Top -->
    <circle cx="0" cy="-25" r="25" fill="#1A1A1A"/>
    <!-- Sides -->
    <circle cx="-28" cy="5" r="20" fill="#1A1A1A"/>
    <circle cx="28" cy="5" r="20" fill="#1A1A1A"/>
    <text x="0" y="70" text-anchor="middle" font-family="sans-serif" font-size="10" fill="#666">9</text>
  </g>

  <!-- 10: Diamond center with leaves -->
  <g transform="translate(420, 300)">
    <!-- Diamond center -->
    <rect x="-12" y="-12" width="24" height="24" transform="rotate(45 0 0)" fill="#1A1A1A"/>
    <!-- Four semicircle petals -->
    <path d="M0 -17 A20 20 0 0 1 0 -57" fill="#1A1A1A"/>
    <path d="M17 0 A20 20 0 0 1 57 0" fill="#1A1A1A"/>
    <path d="M0 17 A20 20 0 0 1 0 57" fill="#1A1A1A"/>
    <path d="M-17 0 A20 20 0 0 1 -57 0" fill="#1A1A1A"/>
    <circle cx="0" cy="-37" r="20" fill="#1A1A1A"/>
    <circle cx="37" cy="0" r="20" fill="#1A1A1A"/>
    <circle cx="0" cy="37" r="20" fill="#1A1A1A"/>
    <circle cx="-37" cy="0" r="20" fill="#1A1A1A"/>
    <text x="0" y="85" text-anchor="middle" font-family="sans-serif" font-size="10" fill="#666">10</text>
  </g>

  <!-- 11: Simple Y sprout -->
  <g transform="translate(530, 300)">
    <rect x="-5" y="0" width="10" height="40" fill="#1A1A1A"/>
    <!-- Y branches -->
    <rect x="-35" y="-40" width="35" height="10" rx="5" transform="rotate(35 0 0)" fill="#1A1A1A"/>
    <rect x="0" y="-40" width="35" height="10" rx="5" transform="rotate(-35 0 -40)" fill="#1A1A1A"/>
    <circle cx="-30" cy="-30" r="16" fill="#1A1A1A"/>
    <circle cx="30" cy="-30" r="16" fill="#1A1A1A"/>
    <text x="0" y="70" text-anchor="middle" font-family="sans-serif" font-size="10" fill="#666">11</text>
  </g>

  <!-- 12: Minimal two-leaf -->
  <g transform="translate(640, 300)">
    <rect x="-4" y="-5" width="8" height="45" fill="#1A1A1A"/>
    <circle cx="-24" cy="-20" r="22" fill="#1A1A1A"/>
    <circle cx="24" cy="-20" r="22" fill="#1A1A1A"/>
    <text x="0" y="70" text-anchor="middle" font-family="sans-serif" font-size="10" fill="#666">12</text>
  </g>


  <!-- ROW 3: With Forest gradient applied -->

  <defs>
    <linearGradient id="fg" x1="0%" y1="100%" x2="0%" y2="0%">
      <stop offset="0%" stop-color="#2F7255"/>
      <stop offset="100%" stop-color="#87AA61"/>
    </linearGradient>
  </defs>

  <g transform="translate(150, 450)">
    <rect x="-5" y="-10" width="10" height="50" fill="url(#fg)"/>
    <path d="M-5 -25 L-5 5 A30 30 0 0 1 -35 -25 Z" fill="url(#fg)"/>
    <path d="M5 -25 L5 5 A30 30 0 0 0 35 -25 Z" fill="url(#fg)"/>
    <text x="70" y="10" font-family="Satoshi, -apple-system, sans-serif" font-size="28" font-weight="500" letter-spacing="-0.02em" fill="#1A1A1A">chosn</text>
  </g>

  <g transform="translate(450, 450)">
    <rect x="-4" y="-5" width="8" height="45" fill="url(#fg)"/>
    <path d="M-4 -35 L-4 -5 A30 30 0 0 1 -34 -35 Z" fill="url(#fg)"/>
    <path d="M4 -35 L4 -5 A30 30 0 0 0 34 -35 Z" fill="url(#fg)"/>
    <path d="M-4 0 L-4 20 A20 20 0 0 1 -24 0 Z" fill="url(#fg)"/>
    <path d="M4 0 L4 20 A20 20 0 0 0 24 0 Z" fill="url(#fg)"/>
    <text x="60" y="10" font-family="Satoshi, -apple-system, sans-serif" font-size="28" font-weight="500" letter-spacing="-0.02em" fill="#1A1A1A">chosn</text>
  </g>

</svg>
