<svg width="700" height="400" viewBox="0 0 700 400" fill="none" xmlns="http://www.w3.org/2000/svg">

  <defs>
    <linearGradient id="bGrad" x1="0%" y1="100%" x2="0%" y2="0%">
      <stop offset="0%" stop-color="#2F7255"/>
      <stop offset="100%" stop-color="#87AA61"/>
    </linearGradient>
  </defs>

  <!-- Variations inspired by bottom-right fern/growth style -->

  <!-- A: Rounded leaf pairs on stem -->
  <g transform="translate(80, 100)">
    <!-- Stem -->
    <rect x="-3" y="-50" width="6" height="100" rx="3" fill="url(#bGrad)"/>
    <!-- Leaf pairs - rounded rectangles -->
    <rect x="-28" y="-45" width="22" height="14" rx="7" fill="url(#bGrad)"/>
    <rect x="6" y="-30" width="22" height="14" rx="7" fill="url(#bGrad)"/>
    <rect x="-28" y="-15" width="22" height="14" rx="7" fill="url(#bGrad)"/>
    <rect x="6" y="0" width="22" height="14" rx="7" fill="url(#bGrad)"/>
    <rect x="-28" y="15" width="22" height="14" rx="7" fill="url(#bGrad)"/>
    <text x="0" y="80" text-anchor="middle" font-family="sans-serif" font-size="10" fill="#666">A</text>
  </g>

  <!-- B: Semicircle leaves alternating -->
  <g transform="translate(180, 100)">
    <rect x="-3" y="-50" width="6" height="100" rx="3" fill="url(#bGrad)"/>
    <!-- Semicircle leaves -->
    <path d="M-3 -40 A15 15 0 0 0 -3 -20" fill="url(#bGrad)"/>
    <circle cx="-18" cy="-30" r="15" fill="url(#bGrad)"/>
    <circle cx="18" cy="-10" r="15" fill="url(#bGrad)"/>
    <circle cx="-18" cy="10" r="15" fill="url(#bGrad)"/>
    <circle cx="18" cy="30" r="12" fill="url(#bGrad)"/>
    <text x="0" y="80" text-anchor="middle" font-family="sans-serif" font-size="10" fill="#666">B</text>
  </g>

  <!-- C: Teardrop leaves (closer to original style) -->
  <g transform="translate(280, 100)">
    <rect x="-3" y="-50" width="6" height="100" rx="3" fill="url(#bGrad)"/>
    <!-- Teardrop leaves alternating -->
    <ellipse cx="-16" cy="-38" rx="10" ry="16" transform="rotate(-15 -16 -38)" fill="url(#bGrad)"/>
    <ellipse cx="16" cy="-18" rx="10" ry="16" transform="rotate(15 16 -18)" fill="url(#bGrad)"/>
    <ellipse cx="-16" cy="2" rx="10" ry="16" transform="rotate(-15 -16 2)" fill="url(#bGrad)"/>
    <ellipse cx="16" cy="22" rx="9" ry="14" transform="rotate(15 16 22)" fill="url(#bGrad)"/>
    <text x="0" y="80" text-anchor="middle" font-family="sans-serif" font-size="10" fill="#666">C</text>
  </g>

  <!-- D: Quarter-circle geometric leaves -->
  <g transform="translate(380, 100)">
    <rect x="-3" y="-50" width="6" height="100" rx="3" fill="url(#bGrad)"/>
    <!-- Quarter circles -->
    <path d="M-3 -45 L-3 -25 A20 20 0 0 1 -23 -45 Z" fill="url(#bGrad)"/>
    <path d="M3 -25 L3 -5 A20 20 0 0 0 23 -25 Z" fill="url(#bGrad)"/>
    <path d="M-3 -5 L-3 15 A20 20 0 0 1 -23 -5 Z" fill="url(#bGrad)"/>
    <path d="M3 15 L3 35 A18 18 0 0 0 21 15 Z" fill="url(#bGrad)"/>
    <text x="0" y="80" text-anchor="middle" font-family="sans-serif" font-size="10" fill="#666">D</text>
  </g>

  <!-- E: Simple paired ovals -->
  <g transform="translate(480, 100)">
    <rect x="-2" y="-45" width="4" height="90" rx="2" fill="url(#bGrad)"/>
    <!-- Paired oval leaves -->
    <ellipse cx="-14" cy="-35" rx="12" ry="8" fill="url(#bGrad)"/>
    <ellipse cx="14" cy="-35" rx="12" ry="8" fill="url(#bGrad)"/>
    <ellipse cx="-14" cy="-12" rx="12" ry="8" fill="url(#bGrad)"/>
    <ellipse cx="14" cy="-12" rx="12" ry="8" fill="url(#bGrad)"/>
    <ellipse cx="-12" cy="11" rx="10" ry="7" fill="url(#bGrad)"/>
    <ellipse cx="12" cy="11" rx="10" ry="7" fill="url(#bGrad)"/>
    <text x="0" y="80" text-anchor="middle" font-family="sans-serif" font-size="10" fill="#666">E</text>
  </g>

  <!-- F: Compact 3-tier (more logo-like) -->
  <g transform="translate(580, 100)">
    <rect x="-3" y="-20" width="6" height="60" rx="3" fill="url(#bGrad)"/>
    <!-- Three tiers of leaves -->
    <ellipse cx="-18" cy="-30" rx="12" ry="18" transform="rotate(-20 -18 -30)" fill="url(#bGrad)"/>
    <ellipse cx="18" cy="-30" rx="12" ry="18" transform="rotate(20 18 -30)" fill="url(#bGrad)"/>
    <ellipse cx="-15" cy="-5" rx="10" ry="14" transform="rotate(-15 -15 -5)" fill="url(#bGrad)"/>
    <ellipse cx="15" cy="-5" rx="10" ry="14" transform="rotate(15 15 -5)" fill="url(#bGrad)"/>
    <text x="0" y="80" text-anchor="middle" font-family="sans-serif" font-size="10" fill="#666">F</text>
  </g>


  <!-- ROW 2: Solid mono versions (how they'd look as icons) -->

  <g transform="translate(80, 260)">
    <rect x="-3" y="-50" width="6" height="100" rx="3" fill="#1A1A1A"/>
    <rect x="-28" y="-45" width="22" height="14" rx="7" fill="#1A1A1A"/>
    <rect x="6" y="-30" width="22" height="14" rx="7" fill="#1A1A1A"/>
    <rect x="-28" y="-15" width="22" height="14" rx="7" fill="#1A1A1A"/>
    <rect x="6" y="0" width="22" height="14" rx="7" fill="#1A1A1A"/>
    <rect x="-28" y="15" width="22" height="14" rx="7" fill="#1A1A1A"/>
  </g>

  <g transform="translate(180, 260)">
    <rect x="-3" y="-50" width="6" height="100" rx="3" fill="#1A1A1A"/>
    <circle cx="-18" cy="-30" r="15" fill="#1A1A1A"/>
    <circle cx="18" cy="-10" r="15" fill="#1A1A1A"/>
    <circle cx="-18" cy="10" r="15" fill="#1A1A1A"/>
    <circle cx="18" cy="30" r="12" fill="#1A1A1A"/>
  </g>

  <g transform="translate(280, 260)">
    <rect x="-3" y="-50" width="6" height="100" rx="3" fill="#1A1A1A"/>
    <ellipse cx="-16" cy="-38" rx="10" ry="16" transform="rotate(-15 -16 -38)" fill="#1A1A1A"/>
    <ellipse cx="16" cy="-18" rx="10" ry="16" transform="rotate(15 16 -18)" fill="#1A1A1A"/>
    <ellipse cx="-16" cy="2" rx="10" ry="16" transform="rotate(-15 -16 2)" fill="#1A1A1A"/>
    <ellipse cx="16" cy="22" rx="9" ry="14" transform="rotate(15 16 22)" fill="#1A1A1A"/>
  </g>

  <g transform="translate(380, 260)">
    <rect x="-3" y="-50" width="6" height="100" rx="3" fill="#1A1A1A"/>
    <path d="M-3 -45 L-3 -25 A20 20 0 0 1 -23 -45 Z" fill="#1A1A1A"/>
    <path d="M3 -25 L3 -5 A20 20 0 0 0 23 -25 Z" fill="#1A1A1A"/>
    <path d="M-3 -5 L-3 15 A20 20 0 0 1 -23 -5 Z" fill="#1A1A1A"/>
    <path d="M3 15 L3 35 A18 18 0 0 0 21 15 Z" fill="#1A1A1A"/>
  </g>

  <g transform="translate(480, 260)">
    <rect x="-2" y="-45" width="4" height="90" rx="2" fill="#1A1A1A"/>
    <ellipse cx="-14" cy="-35" rx="12" ry="8" fill="#1A1A1A"/>
    <ellipse cx="14" cy="-35" rx="12" ry="8" fill="#1A1A1A"/>
    <ellipse cx="-14" cy="-12" rx="12" ry="8" fill="#1A1A1A"/>
    <ellipse cx="14" cy="-12" rx="12" ry="8" fill="#1A1A1A"/>
    <ellipse cx="-12" cy="11" rx="10" ry="7" fill="#1A1A1A"/>
    <ellipse cx="12" cy="11" rx="10" ry="7" fill="#1A1A1A"/>
  </g>

  <g transform="translate(580, 260)">
    <rect x="-3" y="-20" width="6" height="60" rx="3" fill="#1A1A1A"/>
    <ellipse cx="-18" cy="-30" rx="12" ry="18" transform="rotate(-20 -18 -30)" fill="#1A1A1A"/>
    <ellipse cx="18" cy="-30" rx="12" ry="18" transform="rotate(20 18 -30)" fill="#1A1A1A"/>
    <ellipse cx="-15" cy="-5" rx="10" ry="14" transform="rotate(-15 -15 -5)" fill="#1A1A1A"/>
    <ellipse cx="15" cy="-5" rx="10" ry="14" transform="rotate(15 15 -5)" fill="#1A1A1A"/>
  </g>


  <!-- Wordmark lockup -->
  <g transform="translate(200, 380)">
    <g transform="translate(0, -15) scale(0.5)">
      <rect x="-3" y="-20" width="6" height="60" rx="3" fill="url(#bGrad)"/>
      <ellipse cx="-18" cy="-30" rx="12" ry="18" transform="rotate(-20 -18 -30)" fill="url(#bGrad)"/>
      <ellipse cx="18" cy="-30" rx="12" ry="18" transform="rotate(20 18 -30)" fill="url(#bGrad)"/>
      <ellipse cx="-15" cy="-5" rx="10" ry="14" transform="rotate(-15 -15 -5)" fill="url(#bGrad)"/>
      <ellipse cx="15" cy="-5" rx="10" ry="14" transform="rotate(15 15 -5)" fill="url(#bGrad)"/>
    </g>
    <text x="35" y="2" font-family="Satoshi, -apple-system, sans-serif" font-size="26" font-weight="500" letter-spacing="-0.02em" fill="#1A1A1A">flourish</text>
  </g>

  <g transform="translate(480, 380)">
    <g transform="translate(0, -12) scale(0.45)">
      <rect x="-3" y="-50" width="6" height="100" rx="3" fill="url(#bGrad)"/>
      <ellipse cx="-16" cy="-38" rx="10" ry="16" transform="rotate(-15 -16 -38)" fill="url(#bGrad)"/>
      <ellipse cx="16" cy="-18" rx="10" ry="16" transform="rotate(15 16 -18)" fill="url(#bGrad)"/>
      <ellipse cx="-16" cy="2" rx="10" ry="16" transform="rotate(-15 -16 2)" fill="url(#bGrad)"/>
      <ellipse cx="16" cy="22" rx="9" ry="14" transform="rotate(15 16 22)" fill="url(#bGrad)"/>
    </g>
    <text x="35" y="2" font-family="Satoshi, -apple-system, sans-serif" font-size="26" font-weight="500" letter-spacing="-0.02em" fill="#1A1A1A">flourish</text>
  </g>

</svg>
