<svg width="600" height="250" viewBox="0 0 600 250" fill="none" xmlns="http://www.w3.org/2000/svg">

  <!-- Refined A: Petals with clear overlaps visible -->
  <g transform="translate(100, 100)">
    <!-- Background circles (full) -->
    <circle cx="0" cy="-14" r="24" fill="#5835B0"/>
    <circle cx="-21" cy="12" r="24" fill="#BF92F0"/>
    <circle cx="21" cy="12" r="24" fill="#D78F8D"/>

    <!-- Overlap accents - the "connections" -->
    <path d="M-10 -4 A24 24 0 0 1 10 -4 A24 24 0 0 1 0 8 A24 24 0 0 1 -10 -4" fill="#8B6AFF" opacity="0.5"/>

    <!-- Center -->
    <circle cx="0" cy="2" r="6" fill="#FAF8F4"/>

    <text x="0" y="70" text-anchor="middle" font-family="sans-serif" font-size="10" fill="#666">A: Classic Venn bloom</text>
  </g>

  <!-- Refined B: Slightly elongated circles (more petal-like) -->
  <g transform="translate(300, 100)">
    <ellipse cx="0" cy="-16" rx="18" ry="26" fill="#5835B0"/>
    <ellipse cx="-22" cy="14" rx="18" ry="26" transform="rotate(60 -22 14)" fill="#BF92F0"/>
    <ellipse cx="22" cy="14" rx="18" ry="26" transform="rotate(-60 22 14)" fill="#D78F8D"/>
    <circle cx="0" cy="2" r="7" fill="#FAF8F4"/>
    <circle cx="0" cy="2" r="3" fill="#DBA166"/>

    <text x="0" y="70" text-anchor="middle" font-family="sans-serif" font-size="10" fill="#666">B: Petal-shaped</text>
  </g>

  <!-- Refined C: Tight cluster, more abstract -->
  <g transform="translate(500, 100)">
    <circle cx="0" cy="-9" r="18" fill="#5835B0"/>
    <circle cx="-15" cy="8" r="18" fill="#BF92F0"/>
    <circle cx="15" cy="8" r="18" fill="#D78F8D"/>
    <circle cx="0" cy="2" r="9" fill="#FAF8F4"/>
    <circle cx="0" cy="2" r="5" fill="#1A1A1A" opacity="0.08"/>

    <text x="0" y="70" text-anchor="middle" font-family="sans-serif" font-size="10" fill="#666">C: Tight minimal</text>
  </g>

  <!-- With wordmarks below -->

  <!-- Wordmark version of C (the tightest, most minimal) -->
  <g transform="translate(300, 190)">
    <circle cx="-60" cy="-12" r="14" fill="#5835B0"/>
    <circle cx="-72" cy="4" r="14" fill="#BF92F0"/>
    <circle cx="-48" cy="4" r="14" fill="#D78F8D"/>
    <circle cx="-60" cy="-2" r="7" fill="#FAF8F4"/>

    <text
      x="-25"
      y="5"
      font-family="Satoshi, -apple-system, sans-serif"
      font-size="22"
      font-weight="500"
      letter-spacing="-0.02em"
      fill="#1A1A1A"
    >chosn</text>
  </g>

</svg>
