<svg width="700" height="500" viewBox="0 0 700 500" fill="none" xmlns="http://www.w3.org/2000/svg">

  <rect width="700" height="500" fill="#FDF8F3"/>

  <!-- Row 1: Different seed counts and proportions -->

  <!-- 6 seeds - simplest -->
  <g transform="translate(100, 120)">
    <circle cx="0" cy="0" r="14" fill="#2F7255"/>
    <g><line x1="0" y1="-14" x2="0" y2="-40" stroke="#2F7255" stroke-width="4" stroke-linecap="round"/><circle cx="0" cy="-50" r="12" fill="#2F7255"/></g>
    <g transform="rotate(60 0 0)"><line x1="0" y1="-14" x2="0" y2="-40" stroke="#2F7255" stroke-width="4" stroke-linecap="round"/><circle cx="0" cy="-50" r="12" fill="#2F7255"/></g>
    <g transform="rotate(120 0 0)"><line x1="0" y1="-14" x2="0" y2="-40" stroke="#2F7255" stroke-width="4" stroke-linecap="round"/><circle cx="0" cy="-50" r="12" fill="#2F7255"/></g>
    <g transform="rotate(180 0 0)"><line x1="0" y1="-14" x2="0" y2="-40" stroke="#2F7255" stroke-width="4" stroke-linecap="round"/><circle cx="0" cy="-50" r="12" fill="#2F7255"/></g>
    <g transform="rotate(240 0 0)"><line x1="0" y1="-14" x2="0" y2="-40" stroke="#2F7255" stroke-width="4" stroke-linecap="round"/><circle cx="0" cy="-50" r="12" fill="#2F7255"/></g>
    <g transform="rotate(300 0 0)"><line x1="0" y1="-14" x2="0" y2="-40" stroke="#2F7255" stroke-width="4" stroke-linecap="round"/><circle cx="0" cy="-50" r="12" fill="#2F7255"/></g>
    <text x="0" y="85" text-anchor="middle" font-family="sans-serif" font-size="11" fill="#2D3830">6 seeds</text>
  </g>

  <!-- 8 seeds - balanced -->
  <g transform="translate(230, 120)">
    <circle cx="0" cy="0" r="12" fill="#2F7255"/>
    <g><line x1="0" y1="-12" x2="0" y2="-35" stroke="#2F7255" stroke-width="3.5" stroke-linecap="round"/><circle cx="0" cy="-44" r="10" fill="#2F7255"/></g>
    <g transform="rotate(45 0 0)"><line x1="0" y1="-12" x2="0" y2="-35" stroke="#2F7255" stroke-width="3.5" stroke-linecap="round"/><circle cx="0" cy="-44" r="10" fill="#2F7255"/></g>
    <g transform="rotate(90 0 0)"><line x1="0" y1="-12" x2="0" y2="-35" stroke="#2F7255" stroke-width="3.5" stroke-linecap="round"/><circle cx="0" cy="-44" r="10" fill="#2F7255"/></g>
    <g transform="rotate(135 0 0)"><line x1="0" y1="-12" x2="0" y2="-35" stroke="#2F7255" stroke-width="3.5" stroke-linecap="round"/><circle cx="0" cy="-44" r="10" fill="#2F7255"/></g>
    <g transform="rotate(180 0 0)"><line x1="0" y1="-12" x2="0" y2="-35" stroke="#2F7255" stroke-width="3.5" stroke-linecap="round"/><circle cx="0" cy="-44" r="10" fill="#2F7255"/></g>
    <g transform="rotate(225 0 0)"><line x1="0" y1="-12" x2="0" y2="-35" stroke="#2F7255" stroke-width="3.5" stroke-linecap="round"/><circle cx="0" cy="-44" r="10" fill="#2F7255"/></g>
    <g transform="rotate(270 0 0)"><line x1="0" y1="-12" x2="0" y2="-35" stroke="#2F7255" stroke-width="3.5" stroke-linecap="round"/><circle cx="0" cy="-44" r="10" fill="#2F7255"/></g>
    <g transform="rotate(315 0 0)"><line x1="0" y1="-12" x2="0" y2="-35" stroke="#2F7255" stroke-width="3.5" stroke-linecap="round"/><circle cx="0" cy="-44" r="10" fill="#2F7255"/></g>
    <text x="0" y="85" text-anchor="middle" font-family="sans-serif" font-size="11" fill="#2D3830">8 seeds</text>
  </g>

  <!-- 8 seeds - ovals instead of circles -->
  <g transform="translate(360, 120)">
    <circle cx="0" cy="0" r="12" fill="#2F7255"/>
    <g><line x1="0" y1="-12" x2="0" y2="-32" stroke="#2F7255" stroke-width="3" stroke-linecap="round"/><ellipse cx="0" cy="-42" rx="8" ry="12" fill="#2F7255"/></g>
    <g transform="rotate(45 0 0)"><line x1="0" y1="-12" x2="0" y2="-32" stroke="#2F7255" stroke-width="3" stroke-linecap="round"/><ellipse cx="0" cy="-42" rx="8" ry="12" fill="#2F7255"/></g>
    <g transform="rotate(90 0 0)"><line x1="0" y1="-12" x2="0" y2="-32" stroke="#2F7255" stroke-width="3" stroke-linecap="round"/><ellipse cx="0" cy="-42" rx="8" ry="12" fill="#2F7255"/></g>
    <g transform="rotate(135 0 0)"><line x1="0" y1="-12" x2="0" y2="-32" stroke="#2F7255" stroke-width="3" stroke-linecap="round"/><ellipse cx="0" cy="-42" rx="8" ry="12" fill="#2F7255"/></g>
    <g transform="rotate(180 0 0)"><line x1="0" y1="-12" x2="0" y2="-32" stroke="#2F7255" stroke-width="3" stroke-linecap="round"/><ellipse cx="0" cy="-42" rx="8" ry="12" fill="#2F7255"/></g>
    <g transform="rotate(225 0 0)"><line x1="0" y1="-12" x2="0" y2="-32" stroke="#2F7255" stroke-width="3" stroke-linecap="round"/><ellipse cx="0" cy="-42" rx="8" ry="12" fill="#2F7255"/></g>
    <g transform="rotate(270 0 0)"><line x1="0" y1="-12" x2="0" y2="-32" stroke="#2F7255" stroke-width="3" stroke-linecap="round"/><ellipse cx="0" cy="-42" rx="8" ry="12" fill="#2F7255"/></g>
    <g transform="rotate(315 0 0)"><line x1="0" y1="-12" x2="0" y2="-32" stroke="#2F7255" stroke-width="3" stroke-linecap="round"/><ellipse cx="0" cy="-42" rx="8" ry="12" fill="#2F7255"/></g>
    <text x="0" y="85" text-anchor="middle" font-family="sans-serif" font-size="11" fill="#2D3830">8 ovals</text>
  </g>

  <!-- 6 seeds - thicker, bolder -->
  <g transform="translate(490, 120)">
    <circle cx="0" cy="0" r="16" fill="#2F7255"/>
    <g><rect x="-3" y="-42" width="6" height="24" rx="3" fill="#2F7255"/><circle cx="0" cy="-52" r="12" fill="#2F7255"/></g>
    <g transform="rotate(60 0 0)"><rect x="-3" y="-42" width="6" height="24" rx="3" fill="#2F7255"/><circle cx="0" cy="-52" r="12" fill="#2F7255"/></g>
    <g transform="rotate(120 0 0)"><rect x="-3" y="-42" width="6" height="24" rx="3" fill="#2F7255"/><circle cx="0" cy="-52" r="12" fill="#2F7255"/></g>
    <g transform="rotate(180 0 0)"><rect x="-3" y="-42" width="6" height="24" rx="3" fill="#2F7255"/><circle cx="0" cy="-52" r="12" fill="#2F7255"/></g>
    <g transform="rotate(240 0 0)"><rect x="-3" y="-42" width="6" height="24" rx="3" fill="#2F7255"/><circle cx="0" cy="-52" r="12" fill="#2F7255"/></g>
    <g transform="rotate(300 0 0)"><rect x="-3" y="-42" width="6" height="24" rx="3" fill="#2F7255"/><circle cx="0" cy="-52" r="12" fill="#2F7255"/></g>
    <text x="0" y="85" text-anchor="middle" font-family="sans-serif" font-size="11" fill="#2D3830">6 bold</text>
  </g>

  <!-- Super simple - no stems -->
  <g transform="translate(610, 120)">
    <circle cx="0" cy="0" r="14" fill="#2F7255"/>
    <circle cx="0" cy="-38" r="12" fill="#2F7255"/>
    <circle cx="33" cy="-19" r="12" fill="#2F7255"/>
    <circle cx="33" cy="19" r="12" fill="#2F7255"/>
    <circle cx="0" cy="38" r="12" fill="#2F7255"/>
    <circle cx="-33" cy="19" r="12" fill="#2F7255"/>
    <circle cx="-33" cy="-19" r="12" fill="#2F7255"/>
    <text x="0" y="85" text-anchor="middle" font-family="sans-serif" font-size="11" fill="#2D3830">No stems</text>
  </g>


  <!-- Row 2: Small icon test (actual favicon sizes) -->
  <text x="100" y="200" font-family="sans-serif" font-size="12" font-weight="600" fill="#2D3830">Small icon test:</text>

  <!-- 48px -->
  <g transform="translate(100, 260)">
    <rect x="-24" y="-24" width="48" height="48" fill="#FDF8F3" stroke="#ddd" stroke-width="1"/>
    <g transform="scale(0.4)">
      <circle cx="0" cy="0" r="12" fill="#2F7255"/>
      <g><line x1="0" y1="-12" x2="0" y2="-35" stroke="#2F7255" stroke-width="4" stroke-linecap="round"/><circle cx="0" cy="-44" r="10" fill="#2F7255"/></g>
      <g transform="rotate(45 0 0)"><line x1="0" y1="-12" x2="0" y2="-35" stroke="#2F7255" stroke-width="4" stroke-linecap="round"/><circle cx="0" cy="-44" r="10" fill="#2F7255"/></g>
      <g transform="rotate(90 0 0)"><line x1="0" y1="-12" x2="0" y2="-35" stroke="#2F7255" stroke-width="4" stroke-linecap="round"/><circle cx="0" cy="-44" r="10" fill="#2F7255"/></g>
      <g transform="rotate(135 0 0)"><line x1="0" y1="-12" x2="0" y2="-35" stroke="#2F7255" stroke-width="4" stroke-linecap="round"/><circle cx="0" cy="-44" r="10" fill="#2F7255"/></g>
      <g transform="rotate(180 0 0)"><line x1="0" y1="-12" x2="0" y2="-35" stroke="#2F7255" stroke-width="4" stroke-linecap="round"/><circle cx="0" cy="-44" r="10" fill="#2F7255"/></g>
      <g transform="rotate(225 0 0)"><line x1="0" y1="-12" x2="0" y2="-35" stroke="#2F7255" stroke-width="4" stroke-linecap="round"/><circle cx="0" cy="-44" r="10" fill="#2F7255"/></g>
      <g transform="rotate(270 0 0)"><line x1="0" y1="-12" x2="0" y2="-35" stroke="#2F7255" stroke-width="4" stroke-linecap="round"/><circle cx="0" cy="-44" r="10" fill="#2F7255"/></g>
      <g transform="rotate(315 0 0)"><line x1="0" y1="-12" x2="0" y2="-35" stroke="#2F7255" stroke-width="4" stroke-linecap="round"/><circle cx="0" cy="-44" r="10" fill="#2F7255"/></g>
    </g>
    <text x="0" y="42" text-anchor="middle" font-family="sans-serif" font-size="9" fill="#666">48px</text>
  </g>

  <!-- 32px -->
  <g transform="translate(180, 260)">
    <rect x="-16" y="-16" width="32" height="32" fill="#FDF8F3" stroke="#ddd" stroke-width="1"/>
    <g transform="scale(0.28)">
      <circle cx="0" cy="0" r="12" fill="#2F7255"/>
      <g><line x1="0" y1="-12" x2="0" y2="-35" stroke="#2F7255" stroke-width="5" stroke-linecap="round"/><circle cx="0" cy="-44" r="10" fill="#2F7255"/></g>
      <g transform="rotate(45 0 0)"><line x1="0" y1="-12" x2="0" y2="-35" stroke="#2F7255" stroke-width="5" stroke-linecap="round"/><circle cx="0" cy="-44" r="10" fill="#2F7255"/></g>
      <g transform="rotate(90 0 0)"><line x1="0" y1="-12" x2="0" y2="-35" stroke="#2F7255" stroke-width="5" stroke-linecap="round"/><circle cx="0" cy="-44" r="10" fill="#2F7255"/></g>
      <g transform="rotate(135 0 0)"><line x1="0" y1="-12" x2="0" y2="-35" stroke="#2F7255" stroke-width="5" stroke-linecap="round"/><circle cx="0" cy="-44" r="10" fill="#2F7255"/></g>
      <g transform="rotate(180 0 0)"><line x1="0" y1="-12" x2="0" y2="-35" stroke="#2F7255" stroke-width="5" stroke-linecap="round"/><circle cx="0" cy="-44" r="10" fill="#2F7255"/></g>
      <g transform="rotate(225 0 0)"><line x1="0" y1="-12" x2="0" y2="-35" stroke="#2F7255" stroke-width="5" stroke-linecap="round"/><circle cx="0" cy="-44" r="10" fill="#2F7255"/></g>
      <g transform="rotate(270 0 0)"><line x1="0" y1="-12" x2="0" y2="-35" stroke="#2F7255" stroke-width="5" stroke-linecap="round"/><circle cx="0" cy="-44" r="10" fill="#2F7255"/></g>
      <g transform="rotate(315 0 0)"><line x1="0" y1="-12" x2="0" y2="-35" stroke="#2F7255" stroke-width="5" stroke-linecap="round"/><circle cx="0" cy="-44" r="10" fill="#2F7255"/></g>
    </g>
    <text x="0" y="32" text-anchor="middle" font-family="sans-serif" font-size="9" fill="#666">32px</text>
  </g>

  <!-- 24px -->
  <g transform="translate(250, 260)">
    <rect x="-12" y="-12" width="24" height="24" fill="#FDF8F3" stroke="#ddd" stroke-width="1"/>
    <g transform="scale(0.2)">
      <circle cx="0" cy="0" r="14" fill="#2F7255"/>
      <g><line x1="0" y1="-14" x2="0" y2="-38" stroke="#2F7255" stroke-width="6" stroke-linecap="round"/><circle cx="0" cy="-48" r="12" fill="#2F7255"/></g>
      <g transform="rotate(60 0 0)"><line x1="0" y1="-14" x2="0" y2="-38" stroke="#2F7255" stroke-width="6" stroke-linecap="round"/><circle cx="0" cy="-48" r="12" fill="#2F7255"/></g>
      <g transform="rotate(120 0 0)"><line x1="0" y1="-14" x2="0" y2="-38" stroke="#2F7255" stroke-width="6" stroke-linecap="round"/><circle cx="0" cy="-48" r="12" fill="#2F7255"/></g>
      <g transform="rotate(180 0 0)"><line x1="0" y1="-14" x2="0" y2="-38" stroke="#2F7255" stroke-width="6" stroke-linecap="round"/><circle cx="0" cy="-48" r="12" fill="#2F7255"/></g>
      <g transform="rotate(240 0 0)"><line x1="0" y1="-14" x2="0" y2="-38" stroke="#2F7255" stroke-width="6" stroke-linecap="round"/><circle cx="0" cy="-48" r="12" fill="#2F7255"/></g>
      <g transform="rotate(300 0 0)"><line x1="0" y1="-14" x2="0" y2="-38" stroke="#2F7255" stroke-width="6" stroke-linecap="round"/><circle cx="0" cy="-48" r="12" fill="#2F7255"/></g>
    </g>
    <text x="0" y="28" text-anchor="middle" font-family="sans-serif" font-size="9" fill="#666">24px</text>
  </g>

  <!-- 16px (favicon) - 6 seeds works best -->
  <g transform="translate(310, 260)">
    <rect x="-8" y="-8" width="16" height="16" fill="#FDF8F3" stroke="#ddd" stroke-width="1"/>
    <g transform="scale(0.14)">
      <circle cx="0" cy="0" r="16" fill="#2F7255"/>
      <g><rect x="-4" y="-44" width="8" height="26" rx="4" fill="#2F7255"/><circle cx="0" cy="-54" r="14" fill="#2F7255"/></g>
      <g transform="rotate(60 0 0)"><rect x="-4" y="-44" width="8" height="26" rx="4" fill="#2F7255"/><circle cx="0" cy="-54" r="14" fill="#2F7255"/></g>
      <g transform="rotate(120 0 0)"><rect x="-4" y="-44" width="8" height="26" rx="4" fill="#2F7255"/><circle cx="0" cy="-54" r="14" fill="#2F7255"/></g>
      <g transform="rotate(180 0 0)"><rect x="-4" y="-44" width="8" height="26" rx="4" fill="#2F7255"/><circle cx="0" cy="-54" r="14" fill="#2F7255"/></g>
      <g transform="rotate(240 0 0)"><rect x="-4" y="-44" width="8" height="26" rx="4" fill="#2F7255"/><circle cx="0" cy="-54" r="14" fill="#2F7255"/></g>
      <g transform="rotate(300 0 0)"><rect x="-4" y="-44" width="8" height="26" rx="4" fill="#2F7255"/><circle cx="0" cy="-54" r="14" fill="#2F7255"/></g>
    </g>
    <text x="0" y="24" text-anchor="middle" font-family="sans-serif" font-size="9" fill="#666">16px</text>
  </g>


  <!-- Row 3: Final refined versions with wordmarks -->

  <!-- Recommended: 8 seeds, clean -->
  <g transform="translate(150, 400)">
    <g transform="translate(-15, -5) scale(0.35)">
      <circle cx="0" cy="0" r="12" fill="#2F7255"/>
      <g><line x1="0" y1="-12" x2="0" y2="-35" stroke="#2F7255" stroke-width="4" stroke-linecap="round"/><circle cx="0" cy="-44" r="10" fill="#2F7255"/></g>
      <g transform="rotate(45 0 0)"><line x1="0" y1="-12" x2="0" y2="-35" stroke="#2F7255" stroke-width="4" stroke-linecap="round"/><circle cx="0" cy="-44" r="10" fill="#2F7255"/></g>
      <g transform="rotate(90 0 0)"><line x1="0" y1="-12" x2="0" y2="-35" stroke="#2F7255" stroke-width="4" stroke-linecap="round"/><circle cx="0" cy="-44" r="10" fill="#2F7255"/></g>
      <g transform="rotate(135 0 0)"><line x1="0" y1="-12" x2="0" y2="-35" stroke="#2F7255" stroke-width="4" stroke-linecap="round"/><circle cx="0" cy="-44" r="10" fill="#2F7255"/></g>
      <g transform="rotate(180 0 0)"><line x1="0" y1="-12" x2="0" y2="-35" stroke="#2F7255" stroke-width="4" stroke-linecap="round"/><circle cx="0" cy="-44" r="10" fill="#2F7255"/></g>
      <g transform="rotate(225 0 0)"><line x1="0" y1="-12" x2="0" y2="-35" stroke="#2F7255" stroke-width="4" stroke-linecap="round"/><circle cx="0" cy="-44" r="10" fill="#2F7255"/></g>
      <g transform="rotate(270 0 0)"><line x1="0" y1="-12" x2="0" y2="-35" stroke="#2F7255" stroke-width="4" stroke-linecap="round"/><circle cx="0" cy="-44" r="10" fill="#2F7255"/></g>
      <g transform="rotate(315 0 0)"><line x1="0" y1="-12" x2="0" y2="-35" stroke="#2F7255" stroke-width="4" stroke-linecap="round"/><circle cx="0" cy="-44" r="10" fill="#2F7255"/></g>
    </g>
    <text x="25" y="5" font-family="Satoshi, -apple-system, sans-serif" font-size="26" font-weight="500" letter-spacing="-0.02em" fill="#2D3830">chosn</text>
  </g>

  <!-- Alternative: 6 bold -->
  <g transform="translate(420, 400)">
    <g transform="translate(-12, -5) scale(0.3)">
      <circle cx="0" cy="0" r="16" fill="#2F7255"/>
      <g><rect x="-3" y="-42" width="6" height="24" rx="3" fill="#2F7255"/><circle cx="0" cy="-52" r="12" fill="#2F7255"/></g>
      <g transform="rotate(60 0 0)"><rect x="-3" y="-42" width="6" height="24" rx="3" fill="#2F7255"/><circle cx="0" cy="-52" r="12" fill="#2F7255"/></g>
      <g transform="rotate(120 0 0)"><rect x="-3" y="-42" width="6" height="24" rx="3" fill="#2F7255"/><circle cx="0" cy="-52" r="12" fill="#2F7255"/></g>
      <g transform="rotate(180 0 0)"><rect x="-3" y="-42" width="6" height="24" rx="3" fill="#2F7255"/><circle cx="0" cy="-52" r="12" fill="#2F7255"/></g>
      <g transform="rotate(240 0 0)"><rect x="-3" y="-42" width="6" height="24" rx="3" fill="#2F7255"/><circle cx="0" cy="-52" r="12" fill="#2F7255"/></g>
      <g transform="rotate(300 0 0)"><rect x="-3" y="-42" width="6" height="24" rx="3" fill="#2F7255"/><circle cx="0" cy="-52" r="12" fill="#2F7255"/></g>
    </g>
    <text x="22" y="5" font-family="Satoshi, -apple-system, sans-serif" font-size="26" font-weight="500" letter-spacing="-0.02em" fill="#2D3830">chosn</text>
  </g>

</svg>
