<svg width="160" height="40" viewBox="0 0 160 40" fill="none" xmlns="http://www.w3.org/2000/svg">
  <!-- 8-seed dandelion icon -->
  <g transform="translate(20, 20)">
    <circle cx="0" cy="0" r="5" fill="#2F7255"/>
    <g><line x1="0" y1="-5" x2="0" y2="-13" stroke="#2F7255" stroke-width="1.8" stroke-linecap="round"/><circle cx="0" cy="-16" r="4" fill="#2F7255"/></g>
    <g transform="rotate(45 0 0)"><line x1="0" y1="-5" x2="0" y2="-13" stroke="#2F7255" stroke-width="1.8" stroke-linecap="round"/><circle cx="0" cy="-16" r="4" fill="#2F7255"/></g>
    <g transform="rotate(90 0 0)"><line x1="0" y1="-5" x2="0" y2="-13" stroke="#2F7255" stroke-width="1.8" stroke-linecap="round"/><circle cx="0" cy="-16" r="4" fill="#2F7255"/></g>
    <g transform="rotate(135 0 0)"><line x1="0" y1="-5" x2="0" y2="-13" stroke="#2F7255" stroke-width="1.8" stroke-linecap="round"/><circle cx="0" cy="-16" r="4" fill="#2F7255"/></g>
    <g transform="rotate(180 0 0)"><line x1="0" y1="-5" x2="0" y2="-13" stroke="#2F7255" stroke-width="1.8" stroke-linecap="round"/><circle cx="0" cy="-16" r="4" fill="#2F7255"/></g>
    <g transform="rotate(225 0 0)"><line x1="0" y1="-5" x2="0" y2="-13" stroke="#2F7255" stroke-width="1.8" stroke-linecap="round"/><circle cx="0" cy="-16" r="4" fill="#2F7255"/></g>
    <g transform="rotate(270 0 0)"><line x1="0" y1="-5" x2="0" y2="-13" stroke="#2F7255" stroke-width="1.8" stroke-linecap="round"/><circle cx="0" cy="-16" r="4" fill="#2F7255"/></g>
    <g transform="rotate(315 0 0)"><line x1="0" y1="-5" x2="0" y2="-13" stroke="#2F7255" stroke-width="1.8" stroke-linecap="round"/><circle cx="0" cy="-16" r="4" fill="#2F7255"/></g>
  </g>
  <!-- Wordmark -->
  <text x="44" y="26" font-family="Satoshi, -apple-system, sans-serif" font-size="20" font-weight="500" letter-spacing="-0.02em" fill="#1A1A1A">chosn</text>
</svg>
