<svg width="700" height="350" viewBox="0 0 700 350" fill="none" xmlns="http://www.w3.org/2000/svg">

  <!-- Scandinavian style with Forest #2F7255 -->
  <!-- Palette: Forest #2F7255, Peridot #87AA61, Charcoal #2D2D2A, Cream #F5F2EC -->

  <rect width="700" height="350" fill="#F5F2EC"/>

  <!-- 1: Alternating leaf plant -->
  <g transform="translate(90, 110)">
    <rect x="-4" y="-50" width="8" height="100" fill="#2D2D2A"/>
    <ellipse cx="-22" cy="-35" rx="18" ry="10" transform="rotate(-35 -22 -35)" fill="#2F7255"/>
    <ellipse cx="22" cy="-15" rx="18" ry="10" transform="rotate(35 22 -15)" fill="#2F7255"/>
    <ellipse cx="-22" cy="5" rx="18" ry="10" transform="rotate(-35 -22 5)" fill="#2F7255"/>
    <ellipse cx="22" cy="25" rx="16" ry="9" transform="rotate(35 22 25)" fill="#2F7255"/>
    <text x="0" y="80" text-anchor="middle" font-family="sans-serif" font-size="10" fill="#2D2D2A">1</text>
  </g>

  <!-- 2: Two leaves sprouting -->
  <g transform="translate(200, 110)">
    <rect x="-4" y="0" width="8" height="50" fill="#2D2D2A"/>
    <ellipse cx="-20" cy="-15" rx="22" ry="12" transform="rotate(-40 -20 -15)" fill="#2F7255"/>
    <ellipse cx="20" cy="-15" rx="22" ry="12" transform="rotate(40 20 -15)" fill="#2F7255"/>
    <text x="0" y="80" text-anchor="middle" font-family="sans-serif" font-size="10" fill="#2D2D2A">2</text>
  </g>

  <!-- 3: Three leaves clover -->
  <g transform="translate(310, 110)">
    <rect x="-4" y="10" width="8" height="40" fill="#2D2D2A"/>
    <ellipse cx="0" cy="-25" rx="12" ry="22" fill="#2F7255"/>
    <ellipse cx="-22" cy="0" rx="12" ry="20" transform="rotate(-30 -22 0)" fill="#2F7255"/>
    <ellipse cx="22" cy="0" rx="12" ry="20" transform="rotate(30 22 0)" fill="#2F7255"/>
    <text x="0" y="80" text-anchor="middle" font-family="sans-serif" font-size="10" fill="#2D2D2A">3</text>
  </g>

  <!-- 4: Compact sprout (my favorite) -->
  <g transform="translate(420, 110)">
    <rect x="-5" y="5" width="10" height="35" fill="#2D2D2A"/>
    <ellipse cx="-18" cy="-10" rx="16" ry="28" transform="rotate(-25 -18 -10)" fill="#2F7255"/>
    <ellipse cx="18" cy="-10" rx="16" ry="28" transform="rotate(25 18 -10)" fill="#2F7255"/>
    <text x="0" y="80" text-anchor="middle" font-family="sans-serif" font-size="10" fill="#2D2D2A">4</text>
  </g>

  <!-- 5: Single leaf with vein -->
  <g transform="translate(530, 110)">
    <rect x="-3" y="5" width="6" height="40" fill="#2D2D2A"/>
    <ellipse cx="0" cy="-20" rx="14" ry="30" fill="#2F7255"/>
    <rect x="-1.5" y="-45" width="3" height="50" fill="#2D2D2A"/>
    <text x="0" y="80" text-anchor="middle" font-family="sans-serif" font-size="10" fill="#2D2D2A">5</text>
  </g>

  <!-- 6: Flower bloom -->
  <g transform="translate(630, 110)">
    <ellipse cx="0" cy="-22" rx="9" ry="18" fill="#2F7255"/>
    <ellipse cx="19" cy="-11" rx="9" ry="18" transform="rotate(60 19 -11)" fill="#2F7255"/>
    <ellipse cx="19" cy="11" rx="9" ry="18" transform="rotate(120 19 11)" fill="#2F7255"/>
    <ellipse cx="0" cy="22" rx="9" ry="18" fill="#2F7255"/>
    <ellipse cx="-19" cy="11" rx="9" ry="18" transform="rotate(-120 -19 11)" fill="#2F7255"/>
    <ellipse cx="-19" cy="-11" rx="9" ry="18" transform="rotate(-60 -19 -11)" fill="#2F7255"/>
    <circle cx="0" cy="0" r="10" fill="#2D2D2A"/>
    <text x="0" y="80" text-anchor="middle" font-family="sans-serif" font-size="10" fill="#2D2D2A">6</text>
  </g>


  <!-- ROW 2: With Peridot accent -->

  <!-- 7: Two-tone alternating -->
  <g transform="translate(90, 250)">
    <rect x="-4" y="-50" width="8" height="100" fill="#2D2D2A"/>
    <ellipse cx="-22" cy="-35" rx="18" ry="10" transform="rotate(-35 -22 -35)" fill="#2F7255"/>
    <ellipse cx="22" cy="-15" rx="18" ry="10" transform="rotate(35 22 -15)" fill="#87AA61"/>
    <ellipse cx="-22" cy="5" rx="18" ry="10" transform="rotate(-35 -22 5)" fill="#2F7255"/>
    <ellipse cx="22" cy="25" rx="16" ry="9" transform="rotate(35 22 25)" fill="#87AA61"/>
    <text x="0" y="80" text-anchor="middle" font-family="sans-serif" font-size="10" fill="#2D2D2A">7</text>
  </g>

  <!-- 8: Two-tone sprout -->
  <g transform="translate(200, 250)">
    <rect x="-5" y="5" width="10" height="35" fill="#2D2D2A"/>
    <ellipse cx="-18" cy="-10" rx="16" ry="28" transform="rotate(-25 -18 -10)" fill="#2F7255"/>
    <ellipse cx="18" cy="-10" rx="16" ry="28" transform="rotate(25 18 -10)" fill="#87AA61"/>
    <text x="0" y="80" text-anchor="middle" font-family="sans-serif" font-size="10" fill="#2D2D2A">8</text>
  </g>

  <!-- 9: All forest solid -->
  <g transform="translate(310, 250)">
    <rect x="-5" y="5" width="10" height="35" fill="#2F7255"/>
    <ellipse cx="-18" cy="-10" rx="16" ry="28" transform="rotate(-25 -18 -10)" fill="#2F7255"/>
    <ellipse cx="18" cy="-10" rx="16" ry="28" transform="rotate(25 18 -10)" fill="#2F7255"/>
    <text x="0" y="80" text-anchor="middle" font-family="sans-serif" font-size="10" fill="#2D2D2A">9</text>
  </g>

  <!-- Wordmarks -->

  <g transform="translate(480, 230)">
    <g transform="translate(-15, -8) scale(0.5)">
      <rect x="-5" y="5" width="10" height="35" fill="#2D2D2A"/>
      <ellipse cx="-18" cy="-10" rx="16" ry="28" transform="rotate(-25 -18 -10)" fill="#2F7255"/>
      <ellipse cx="18" cy="-10" rx="16" ry="28" transform="rotate(25 18 -10)" fill="#2F7255"/>
    </g>
    <text x="30" y="5" font-family="Satoshi, -apple-system, sans-serif" font-size="28" font-weight="500" letter-spacing="-0.02em" fill="#2D2D2A">chosn</text>
  </g>

  <g transform="translate(480, 290)">
    <g transform="translate(-12, -12) scale(0.4)">
      <rect x="-4" y="-50" width="8" height="100" fill="#2D2D2A"/>
      <ellipse cx="-22" cy="-35" rx="18" ry="10" transform="rotate(-35 -22 -35)" fill="#2F7255"/>
      <ellipse cx="22" cy="-15" rx="18" ry="10" transform="rotate(35 22 -15)" fill="#2F7255"/>
      <ellipse cx="-22" cy="5" rx="18" ry="10" transform="rotate(-35 -22 5)" fill="#2F7255"/>
      <ellipse cx="22" cy="25" rx="16" ry="9" transform="rotate(35 22 25)" fill="#2F7255"/>
    </g>
    <text x="28" y="5" font-family="Satoshi, -apple-system, sans-serif" font-size="28" font-weight="500" letter-spacing="-0.02em" fill="#2D2D2A">chosn</text>
  </g>

</svg>
