<svg width="200" height="200" viewBox="0 0 200 200" fill="none" xmlns="http://www.w3.org/2000/svg">

  <!-- Concept H: Interlocking Petals (most minimal) -->
  <!-- Two simple leaf/petal shapes that pass through each other -->
  <!-- Like two links of a chain, but organic and floral -->

  <g transform="translate(100, 100)">
    <!-- First petal ring - vertical orientation -->
    <path
      d="M0 -36
         C16 -36 28 -20 28 0
         C28 20 16 36 0 36
         C-16 36 -28 20 -28 0
         C-28 -20 -16 -36 0 -36Z
         M0 -20
         C-8 -20 -12 -10 -12 0
         C-12 10 -8 20 0 20
         C8 20 12 10 12 0
         C12 -10 8 -20 0 -20Z"
      fill="#5835B0"
      fill-rule="evenodd"
    />

    <!-- Second petal ring - horizontal, interlocked -->
    <path
      d="M-36 0
         C-36 -16 -20 -28 0 -28
         C20 -28 36 -16 36 0
         C36 16 20 28 0 28
         C-20 28 -36 16 -36 0Z
         M-20 0
         C-20 8 -10 12 0 12
         C10 12 20 8 20 0
         C20 -8 10 -12 0 -12
         C-10 -12 -20 -8 -20 0Z"
      fill="#BF92F0"
      fill-rule="evenodd"
    />

    <!-- Center bloom -->
    <circle cx="0" cy="0" r="6" fill="#D78F8D"/>
  </g>

  <text x="100" y="175" text-anchor="middle" font-family="sans-serif" font-size="12" fill="#666">H: Interlocking Rings</text>

</svg>
