<svg width="700" height="350" viewBox="0 0 700 350" fill="none" xmlns="http://www.w3.org/2000/svg">

  <!-- Variation 1: 3 rings (triangle arrangement) - simpler, more unique -->
  <g transform="translate(100, 90)">
    <circle cx="0" cy="-16" r="24" fill="none" stroke="#1A1A1A" stroke-width="3"/>
    <circle cx="-20" cy="12" r="24" fill="none" stroke="#1A1A1A" stroke-width="3"/>
    <circle cx="20" cy="12" r="24" fill="none" stroke="#1A1A1A" stroke-width="3"/>
    <circle cx="0" cy="0" r="10" fill="none" stroke="#1A1A1A" stroke-width="3"/>
    <text x="0" y="70" text-anchor="middle" font-family="sans-serif" font-size="9" fill="#666">1: Three rings</text>
  </g>

  <!-- Variation 2: 4 rings (offset, not symmetrical) -->
  <g transform="translate(240, 90)">
    <circle cx="-14" cy="-14" r="22" fill="none" stroke="#1A1A1A" stroke-width="3"/>
    <circle cx="14" cy="-14" r="22" fill="none" stroke="#1A1A1A" stroke-width="3"/>
    <circle cx="-14" cy="14" r="22" fill="none" stroke="#1A1A1A" stroke-width="3"/>
    <circle cx="14" cy="14" r="22" fill="none" stroke="#1A1A1A" stroke-width="3"/>
    <circle cx="0" cy="0" r="8" fill="#1A1A1A"/>
    <text x="0" y="70" text-anchor="middle" font-family="sans-serif" font-size="9" fill="#666">2: Four rings</text>
  </g>

  <!-- Variation 3: 5 rings (like a cherry blossom) -->
  <g transform="translate(380, 90)">
    <circle cx="0" cy="-22" r="18" fill="none" stroke="#1A1A1A" stroke-width="2.5"/>
    <circle cx="-21" cy="-7" r="18" fill="none" stroke="#1A1A1A" stroke-width="2.5"/>
    <circle cx="-13" cy="18" r="18" fill="none" stroke="#1A1A1A" stroke-width="2.5"/>
    <circle cx="13" cy="18" r="18" fill="none" stroke="#1A1A1A" stroke-width="2.5"/>
    <circle cx="21" cy="-7" r="18" fill="none" stroke="#1A1A1A" stroke-width="2.5"/>
    <circle cx="0" cy="0" r="9" fill="none" stroke="#1A1A1A" stroke-width="2.5"/>
    <text x="0" y="70" text-anchor="middle" font-family="sans-serif" font-size="9" fill="#666">3: Five rings</text>
  </g>

  <!-- Variation 4: 3 ellipses (more petal-like rings) -->
  <g transform="translate(520, 90)">
    <ellipse cx="0" cy="-18" rx="14" ry="22" fill="none" stroke="#1A1A1A" stroke-width="2.5"/>
    <ellipse cx="-20" cy="12" rx="14" ry="22" transform="rotate(60 -20 12)" fill="none" stroke="#1A1A1A" stroke-width="2.5"/>
    <ellipse cx="20" cy="12" rx="14" ry="22" transform="rotate(-60 20 12)" fill="none" stroke="#1A1A1A" stroke-width="2.5"/>
    <circle cx="0" cy="0" r="8" fill="none" stroke="#1A1A1A" stroke-width="2.5"/>
    <text x="0" y="70" text-anchor="middle" font-family="sans-serif" font-size="9" fill="#666">4: Three ellipses</text>
  </g>

  <!-- Variation 5: Varying sizes (organic, less geometric) -->
  <g transform="translate(640, 90)">
    <circle cx="0" cy="-20" r="20" fill="none" stroke="#1A1A1A" stroke-width="2.5"/>
    <circle cx="-18" cy="8" r="18" fill="none" stroke="#1A1A1A" stroke-width="2.5"/>
    <circle cx="16" cy="12" r="16" fill="none" stroke="#1A1A1A" stroke-width="2.5"/>
    <circle cx="0" cy="2" r="7" fill="#1A1A1A"/>
    <text x="0" y="70" text-anchor="middle" font-family="sans-serif" font-size="9" fill="#666">5: Varied sizes</text>
  </g>

  <!-- ROW 2: Same but with brand colors -->

  <!-- Variation 1 colored -->
  <g transform="translate(100, 230)">
    <circle cx="0" cy="-16" r="24" fill="none" stroke="#5835B0" stroke-width="3"/>
    <circle cx="-20" cy="12" r="24" fill="none" stroke="#BF92F0" stroke-width="3"/>
    <circle cx="20" cy="12" r="24" fill="none" stroke="#D78F8D" stroke-width="3"/>
    <circle cx="0" cy="0" r="10" fill="none" stroke="#DBA166" stroke-width="3"/>
    <text x="0" y="70" text-anchor="middle" font-family="sans-serif" font-size="9" fill="#666">Colored</text>
  </g>

  <!-- Variation 2 colored -->
  <g transform="translate(240, 230)">
    <circle cx="-14" cy="-14" r="22" fill="none" stroke="#5835B0" stroke-width="3"/>
    <circle cx="14" cy="-14" r="22" fill="none" stroke="#BF92F0" stroke-width="3"/>
    <circle cx="-14" cy="14" r="22" fill="none" stroke="#D78F8D" stroke-width="3"/>
    <circle cx="14" cy="14" r="22" fill="none" stroke="#DBA166" stroke-width="3"/>
    <circle cx="0" cy="0" r="8" fill="#5835B0"/>
    <text x="0" y="70" text-anchor="middle" font-family="sans-serif" font-size="9" fill="#666">Colored</text>
  </g>

  <!-- Variation 3 colored -->
  <g transform="translate(380, 230)">
    <circle cx="0" cy="-22" r="18" fill="none" stroke="#5835B0" stroke-width="2.5"/>
    <circle cx="-21" cy="-7" r="18" fill="none" stroke="#8B6AFF" stroke-width="2.5"/>
    <circle cx="-13" cy="18" r="18" fill="none" stroke="#BF92F0" stroke-width="2.5"/>
    <circle cx="13" cy="18" r="18" fill="none" stroke="#D78F8D" stroke-width="2.5"/>
    <circle cx="21" cy="-7" r="18" fill="none" stroke="#DBA166" stroke-width="2.5"/>
    <circle cx="0" cy="0" r="9" fill="none" stroke="#5835B0" stroke-width="2.5"/>
    <text x="0" y="70" text-anchor="middle" font-family="sans-serif" font-size="9" fill="#666">Colored</text>
  </g>

  <!-- Variation 4 colored -->
  <g transform="translate(520, 230)">
    <ellipse cx="0" cy="-18" rx="14" ry="22" fill="none" stroke="#5835B0" stroke-width="2.5"/>
    <ellipse cx="-20" cy="12" rx="14" ry="22" transform="rotate(60 -20 12)" fill="none" stroke="#BF92F0" stroke-width="2.5"/>
    <ellipse cx="20" cy="12" rx="14" ry="22" transform="rotate(-60 20 12)" fill="none" stroke="#D78F8D" stroke-width="2.5"/>
    <circle cx="0" cy="0" r="8" fill="none" stroke="#DBA166" stroke-width="2.5"/>
    <text x="0" y="70" text-anchor="middle" font-family="sans-serif" font-size="9" fill="#666">Colored</text>
  </g>

  <!-- Variation 5 colored -->
  <g transform="translate(640, 230)">
    <circle cx="0" cy="-20" r="20" fill="none" stroke="#5835B0" stroke-width="2.5"/>
    <circle cx="-18" cy="8" r="18" fill="none" stroke="#BF92F0" stroke-width="2.5"/>
    <circle cx="16" cy="12" r="16" fill="none" stroke="#D78F8D" stroke-width="2.5"/>
    <circle cx="0" cy="2" r="7" fill="#5835B0"/>
    <text x="0" y="70" text-anchor="middle" font-family="sans-serif" font-size="9" fill="#666">Colored</text>
  </g>

</svg>
