<svg width="600" height="400" viewBox="0 0 600 400" fill="none" xmlns="http://www.w3.org/2000/svg">

  <rect width="600" height="400" fill="#F5F2EC"/>

  <!-- OPTION A: Branch with alternating leaves -->
  <g transform="translate(150, 180)">
    <!-- Stem -->
    <rect x="-5" y="-80" width="10" height="160" rx="5" fill="#2F7255"/>

    <!-- Leaf pairs - 3 tiers -->
    <!-- Top pair -->
    <ellipse cx="-32" cy="-55" rx="28" ry="18" transform="rotate(-25 -32 -55)" fill="#2F7255"/>
    <ellipse cx="32" cy="-55" rx="28" ry="18" transform="rotate(25 32 -55)" fill="#2F7255"/>

    <!-- Middle pair -->
    <ellipse cx="-35" cy="-5" rx="30" ry="19" transform="rotate(-25 -35 -5)" fill="#2F7255"/>
    <ellipse cx="35" cy="-5" rx="30" ry="19" transform="rotate(25 35 -5)" fill="#2F7255"/>

    <!-- Bottom pair -->
    <ellipse cx="-32" cy="45" rx="28" ry="18" transform="rotate(-25 -32 45)" fill="#2F7255"/>
    <ellipse cx="32" cy="45" rx="28" ry="18" transform="rotate(25 32 45)" fill="#2F7255"/>

    <text x="0" y="110" text-anchor="middle" font-family="Satoshi, sans-serif" font-size="14" font-weight="500" fill="#2D2D2A">A: Branch</text>
  </g>


  <!-- OPTION B: Dandelion/Sunburst -->
  <g transform="translate(450, 180)">
    <!-- Stem -->
    <rect x="-4" y="30" width="8" height="50" rx="4" fill="#2F7255"/>

    <!-- Center circle -->
    <circle cx="0" cy="0" r="16" fill="#2F7255"/>

    <!-- Radiating seeds (12 of them) -->
    <!-- Using lines + circles at the end -->
    <g>
      <!-- 12 o'clock -->
      <rect x="-2" y="-55" width="4" height="35" rx="2" fill="#2F7255"/>
      <ellipse cx="0" cy="-65" rx="12" ry="16" fill="#2F7255"/>
    </g>
    <g transform="rotate(30 0 0)">
      <rect x="-2" y="-55" width="4" height="35" rx="2" fill="#2F7255"/>
      <ellipse cx="0" cy="-65" rx="12" ry="16" fill="#2F7255"/>
    </g>
    <g transform="rotate(60 0 0)">
      <rect x="-2" y="-55" width="4" height="35" rx="2" fill="#2F7255"/>
      <ellipse cx="0" cy="-65" rx="12" ry="16" fill="#2F7255"/>
    </g>
    <g transform="rotate(90 0 0)">
      <rect x="-2" y="-55" width="4" height="35" rx="2" fill="#2F7255"/>
      <ellipse cx="0" cy="-65" rx="12" ry="16" fill="#2F7255"/>
    </g>
    <g transform="rotate(120 0 0)">
      <rect x="-2" y="-55" width="4" height="35" rx="2" fill="#2F7255"/>
      <ellipse cx="0" cy="-65" rx="12" ry="16" fill="#2F7255"/>
    </g>
    <g transform="rotate(150 0 0)">
      <rect x="-2" y="-55" width="4" height="35" rx="2" fill="#2F7255"/>
      <ellipse cx="0" cy="-65" rx="12" ry="16" fill="#2F7255"/>
    </g>
    <g transform="rotate(180 0 0)">
      <rect x="-2" y="-55" width="4" height="35" rx="2" fill="#2F7255"/>
      <ellipse cx="0" cy="-65" rx="12" ry="16" fill="#2F7255"/>
    </g>
    <g transform="rotate(210 0 0)">
      <rect x="-2" y="-55" width="4" height="35" rx="2" fill="#2F7255"/>
      <ellipse cx="0" cy="-65" rx="12" ry="16" fill="#2F7255"/>
    </g>
    <g transform="rotate(240 0 0)">
      <rect x="-2" y="-55" width="4" height="35" rx="2" fill="#2F7255"/>
      <ellipse cx="0" cy="-65" rx="12" ry="16" fill="#2F7255"/>
    </g>
    <g transform="rotate(270 0 0)">
      <rect x="-2" y="-55" width="4" height="35" rx="2" fill="#2F7255"/>
      <ellipse cx="0" cy="-65" rx="12" ry="16" fill="#2F7255"/>
    </g>
    <g transform="rotate(300 0 0)">
      <rect x="-2" y="-55" width="4" height="35" rx="2" fill="#2F7255"/>
      <ellipse cx="0" cy="-65" rx="12" ry="16" fill="#2F7255"/>
    </g>
    <g transform="rotate(330 0 0)">
      <rect x="-2" y="-55" width="4" height="35" rx="2" fill="#2F7255"/>
      <ellipse cx="0" cy="-65" rx="12" ry="16" fill="#2F7255"/>
    </g>

    <!-- White center hole -->
    <circle cx="0" cy="0" r="8" fill="#F5F2EC"/>

    <text x="0" y="110" text-anchor="middle" font-family="Satoshi, sans-serif" font-size="14" font-weight="500" fill="#2D2D2A">B: Dandelion</text>
  </g>


  <!-- Wordmark lockups at bottom -->

  <g transform="translate(100, 350)">
    <g transform="translate(0, -12) scale(0.3)">
      <rect x="-5" y="-80" width="10" height="160" rx="5" fill="#2F7255"/>
      <ellipse cx="-32" cy="-55" rx="28" ry="18" transform="rotate(-25 -32 -55)" fill="#2F7255"/>
      <ellipse cx="32" cy="-55" rx="28" ry="18" transform="rotate(25 32 -55)" fill="#2F7255"/>
      <ellipse cx="-35" cy="-5" rx="30" ry="19" transform="rotate(-25 -35 -5)" fill="#2F7255"/>
      <ellipse cx="35" cy="-5" rx="30" ry="19" transform="rotate(25 35 -5)" fill="#2F7255"/>
      <ellipse cx="-32" cy="45" rx="28" ry="18" transform="rotate(-25 -32 45)" fill="#2F7255"/>
      <ellipse cx="32" cy="45" rx="28" ry="18" transform="rotate(25 32 45)" fill="#2F7255"/>
    </g>
    <text x="40" y="5" font-family="Satoshi, -apple-system, sans-serif" font-size="26" font-weight="500" letter-spacing="-0.02em" fill="#2D2D2A">chosn</text>
  </g>

  <g transform="translate(380, 350)">
    <g transform="translate(0, -8) scale(0.28)">
      <rect x="-4" y="30" width="8" height="50" rx="4" fill="#2F7255"/>
      <circle cx="0" cy="0" r="16" fill="#2F7255"/>
      <g><rect x="-2" y="-55" width="4" height="35" rx="2" fill="#2F7255"/><ellipse cx="0" cy="-65" rx="12" ry="16" fill="#2F7255"/></g>
      <g transform="rotate(30 0 0)"><rect x="-2" y="-55" width="4" height="35" rx="2" fill="#2F7255"/><ellipse cx="0" cy="-65" rx="12" ry="16" fill="#2F7255"/></g>
      <g transform="rotate(60 0 0)"><rect x="-2" y="-55" width="4" height="35" rx="2" fill="#2F7255"/><ellipse cx="0" cy="-65" rx="12" ry="16" fill="#2F7255"/></g>
      <g transform="rotate(90 0 0)"><rect x="-2" y="-55" width="4" height="35" rx="2" fill="#2F7255"/><ellipse cx="0" cy="-65" rx="12" ry="16" fill="#2F7255"/></g>
      <g transform="rotate(120 0 0)"><rect x="-2" y="-55" width="4" height="35" rx="2" fill="#2F7255"/><ellipse cx="0" cy="-65" rx="12" ry="16" fill="#2F7255"/></g>
      <g transform="rotate(150 0 0)"><rect x="-2" y="-55" width="4" height="35" rx="2" fill="#2F7255"/><ellipse cx="0" cy="-65" rx="12" ry="16" fill="#2F7255"/></g>
      <g transform="rotate(180 0 0)"><rect x="-2" y="-55" width="4" height="35" rx="2" fill="#2F7255"/><ellipse cx="0" cy="-65" rx="12" ry="16" fill="#2F7255"/></g>
      <g transform="rotate(210 0 0)"><rect x="-2" y="-55" width="4" height="35" rx="2" fill="#2F7255"/><ellipse cx="0" cy="-65" rx="12" ry="16" fill="#2F7255"/></g>
      <g transform="rotate(240 0 0)"><rect x="-2" y="-55" width="4" height="35" rx="2" fill="#2F7255"/><ellipse cx="0" cy="-65" rx="12" ry="16" fill="#2F7255"/></g>
      <g transform="rotate(270 0 0)"><rect x="-2" y="-55" width="4" height="35" rx="2" fill="#2F7255"/><ellipse cx="0" cy="-65" rx="12" ry="16" fill="#2F7255"/></g>
      <g transform="rotate(300 0 0)"><rect x="-2" y="-55" width="4" height="35" rx="2" fill="#2F7255"/><ellipse cx="0" cy="-65" rx="12" ry="16" fill="#2F7255"/></g>
      <g transform="rotate(330 0 0)"><rect x="-2" y="-55" width="4" height="35" rx="2" fill="#2F7255"/><ellipse cx="0" cy="-65" rx="12" ry="16" fill="#2F7255"/></g>
      <circle cx="0" cy="0" r="8" fill="#F5F2EC"/>
    </g>
    <text x="35" y="5" font-family="Satoshi, -apple-system, sans-serif" font-size="26" font-weight="500" letter-spacing="-0.02em" fill="#2D2D2A">chosn</text>
  </g>

</svg>
