<svg width="700" height="450" viewBox="0 0 700 450" fill="none" xmlns="http://www.w3.org/2000/svg">

  <!-- Scandinavian Modern Bauhaus style -->
  <!-- Palette: Sage #7B9E7B, Charcoal #2F3830, Cream #E8E3DA -->

  <rect width="700" height="450" fill="#E8E3DA"/>

  <!-- 1: Alternating leaf plant (like center of reference) -->
  <g transform="translate(90, 110)">
    <rect x="-4" y="-50" width="8" height="100" fill="#2F3830"/>
    <!-- Ellipse leaves alternating - sage -->
    <ellipse cx="-22" cy="-35" rx="18" ry="10" transform="rotate(-35 -22 -35)" fill="#7B9E7B"/>
    <ellipse cx="22" cy="-15" rx="18" ry="10" transform="rotate(35 22 -15)" fill="#7B9E7B"/>
    <ellipse cx="-22" cy="5" rx="18" ry="10" transform="rotate(-35 -22 5)" fill="#7B9E7B"/>
    <ellipse cx="22" cy="25" rx="16" ry="9" transform="rotate(35 22 25)" fill="#7B9E7B"/>
    <text x="0" y="80" text-anchor="middle" font-family="sans-serif" font-size="10" fill="#2F3830">1</text>
  </g>

  <!-- 2: Same but charcoal leaves -->
  <g transform="translate(200, 110)">
    <rect x="-4" y="-50" width="8" height="100" fill="#7B9E7B"/>
    <ellipse cx="-22" cy="-35" rx="18" ry="10" transform="rotate(-35 -22 -35)" fill="#2F3830"/>
    <ellipse cx="22" cy="-15" rx="18" ry="10" transform="rotate(35 22 -15)" fill="#2F3830"/>
    <ellipse cx="-22" cy="5" rx="18" ry="10" transform="rotate(-35 -22 5)" fill="#2F3830"/>
    <ellipse cx="22" cy="25" rx="16" ry="9" transform="rotate(35 22 25)" fill="#2F3830"/>
    <text x="0" y="80" text-anchor="middle" font-family="sans-serif" font-size="10" fill="#2F3830">2</text>
  </g>

  <!-- 3: Two leaves sprouting (simple) -->
  <g transform="translate(310, 110)">
    <rect x="-4" y="0" width="8" height="50" fill="#2F3830"/>
    <ellipse cx="-20" cy="-15" rx="22" ry="12" transform="rotate(-40 -20 -15)" fill="#7B9E7B"/>
    <ellipse cx="20" cy="-15" rx="22" ry="12" transform="rotate(40 20 -15)" fill="#7B9E7B"/>
    <text x="0" y="80" text-anchor="middle" font-family="sans-serif" font-size="10" fill="#2F3830">3</text>
  </g>

  <!-- 4: Three leaves (clover style) -->
  <g transform="translate(420, 110)">
    <rect x="-4" y="10" width="8" height="40" fill="#2F3830"/>
    <ellipse cx="0" cy="-25" rx="12" ry="22" fill="#7B9E7B"/>
    <ellipse cx="-22" cy="0" rx="12" ry="20" transform="rotate(-30 -22 0)" fill="#7B9E7B"/>
    <ellipse cx="22" cy="0" rx="12" ry="20" transform="rotate(30 22 0)" fill="#7B9E7B"/>
    <text x="0" y="80" text-anchor="middle" font-family="sans-serif" font-size="10" fill="#2F3830">4</text>
  </g>

  <!-- 5: Semicircle bloom -->
  <g transform="translate(530, 110)">
    <rect x="-4" y="10" width="8" height="40" fill="#2F3830"/>
    <path d="M-35 10 A35 35 0 0 1 35 10 Z" fill="#7B9E7B"/>
    <circle cx="0" cy="-5" r="18" fill="#7B9E7B"/>
    <text x="0" y="80" text-anchor="middle" font-family="sans-serif" font-size="10" fill="#2F3830">5</text>
  </g>

  <!-- 6: Star/flower bloom (like reference) -->
  <g transform="translate(630, 110)">
    <!-- 6 pointed petals -->
    <ellipse cx="0" cy="-25" rx="10" ry="20" fill="#7B9E7B"/>
    <ellipse cx="22" cy="-12" rx="10" ry="20" transform="rotate(60 22 -12)" fill="#7B9E7B"/>
    <ellipse cx="22" cy="12" rx="10" ry="20" transform="rotate(120 22 12)" fill="#7B9E7B"/>
    <ellipse cx="0" cy="25" rx="10" ry="20" fill="#7B9E7B"/>
    <ellipse cx="-22" cy="12" rx="10" ry="20" transform="rotate(-120 -22 12)" fill="#7B9E7B"/>
    <ellipse cx="-22" cy="-12" rx="10" ry="20" transform="rotate(-60 -22 -12)" fill="#7B9E7B"/>
    <circle cx="0" cy="0" r="12" fill="#2F3830"/>
    <text x="0" y="80" text-anchor="middle" font-family="sans-serif" font-size="10" fill="#2F3830">6</text>
  </g>


  <!-- ROW 2: More variations -->

  <!-- 7: Single elegant leaf -->
  <g transform="translate(90, 260)">
    <rect x="-3" y="5" width="6" height="40" fill="#2F3830"/>
    <ellipse cx="0" cy="-20" rx="14" ry="30" fill="#7B9E7B"/>
    <!-- Leaf vein -->
    <rect x="-1.5" y="-45" width="3" height="50" fill="#2F3830"/>
    <text x="0" y="80" text-anchor="middle" font-family="sans-serif" font-size="10" fill="#2F3830">7</text>
  </g>

  <!-- 8: Teardrop leaves -->
  <g transform="translate(200, 260)">
    <rect x="-4" y="5" width="8" height="40" fill="#2F3830"/>
    <path d="M0 -45 Q-25 -20 0 5 Q25 -20 0 -45 Z" fill="#7B9E7B"/>
    <ellipse cx="-25" cy="0" rx="10" ry="18" transform="rotate(-30 -25 0)" fill="#7B9E7B"/>
    <ellipse cx="25" cy="0" rx="10" ry="18" transform="rotate(30 25 0)" fill="#7B9E7B"/>
    <text x="0" y="80" text-anchor="middle" font-family="sans-serif" font-size="10" fill="#2F3830">8</text>
  </g>

  <!-- 9: Two semicircles (like top left of reference) -->
  <g transform="translate(310, 260)">
    <path d="M-40 15 A25 25 0 0 1 -40 -35 L-40 15 Z" fill="#2F3830"/>
    <path d="M40 15 A25 25 0 0 0 40 -35 L40 15 Z" fill="#2F3830"/>
    <ellipse cx="-5" cy="-35" rx="8" ry="14" transform="rotate(-15 -5 -35)" fill="#7B9E7B"/>
    <ellipse cx="5" cy="-35" rx="8" ry="14" transform="rotate(15 5 -35)" fill="#7B9E7B"/>
    <rect x="-3" y="15" width="6" height="30" fill="#2F3830"/>
    <text x="0" y="80" text-anchor="middle" font-family="sans-serif" font-size="10" fill="#2F3830">9</text>
  </g>

  <!-- 10: Compact sprout -->
  <g transform="translate(420, 260)">
    <rect x="-5" y="5" width="10" height="35" fill="#2F3830"/>
    <ellipse cx="-18" cy="-10" rx="16" ry="28" transform="rotate(-25 -18 -10)" fill="#7B9E7B"/>
    <ellipse cx="18" cy="-10" rx="16" ry="28" transform="rotate(25 18 -10)" fill="#7B9E7B"/>
    <text x="0" y="80" text-anchor="middle" font-family="sans-serif" font-size="10" fill="#2F3830">10</text>
  </g>

  <!-- 11: Quarter circle petals -->
  <g transform="translate(530, 260)">
    <path d="M0 0 L-35 0 A35 35 0 0 1 0 -35 Z" fill="#7B9E7B"/>
    <path d="M0 0 L0 -35 A35 35 0 0 1 35 0 Z" fill="#2F3830"/>
    <path d="M0 0 L35 0 A35 35 0 0 1 0 35 Z" fill="#7B9E7B"/>
    <path d="M0 0 L0 35 A35 35 0 0 1 -35 0 Z" fill="#2F3830"/>
    <circle cx="0" cy="0" r="10" fill="#E8E3DA"/>
    <text x="0" y="80" text-anchor="middle" font-family="sans-serif" font-size="10" fill="#2F3830">11</text>
  </g>

  <!-- 12: Abstract connected -->
  <g transform="translate(630, 260)">
    <circle cx="-18" cy="-18" r="22" fill="#7B9E7B"/>
    <circle cx="18" cy="-18" r="22" fill="#7B9E7B"/>
    <circle cx="0" cy="18" r="22" fill="#2F3830"/>
    <circle cx="0" cy="0" r="10" fill="#E8E3DA"/>
    <text x="0" y="80" text-anchor="middle" font-family="sans-serif" font-size="10" fill="#2F3830">12</text>
  </g>


  <!-- ROW 3: Wordmark lockups -->

  <g transform="translate(150, 400)">
    <g transform="translate(-20, -15) scale(0.45)">
      <rect x="-4" y="-50" width="8" height="100" fill="#2F3830"/>
      <ellipse cx="-22" cy="-35" rx="18" ry="10" transform="rotate(-35 -22 -35)" fill="#7B9E7B"/>
      <ellipse cx="22" cy="-15" rx="18" ry="10" transform="rotate(35 22 -15)" fill="#7B9E7B"/>
      <ellipse cx="-22" cy="5" rx="18" ry="10" transform="rotate(-35 -22 5)" fill="#7B9E7B"/>
      <ellipse cx="22" cy="25" rx="16" ry="9" transform="rotate(35 22 25)" fill="#7B9E7B"/>
    </g>
    <text x="25" y="5" font-family="Satoshi, -apple-system, sans-serif" font-size="28" font-weight="500" letter-spacing="-0.02em" fill="#2F3830">flourish</text>
  </g>

  <g transform="translate(420, 400)">
    <g transform="translate(-15, -8) scale(0.5)">
      <rect x="-5" y="5" width="10" height="35" fill="#2F3830"/>
      <ellipse cx="-18" cy="-10" rx="16" ry="28" transform="rotate(-25 -18 -10)" fill="#7B9E7B"/>
      <ellipse cx="18" cy="-10" rx="16" ry="28" transform="rotate(25 18 -10)" fill="#7B9E7B"/>
    </g>
    <text x="30" y="5" font-family="Satoshi, -apple-system, sans-serif" font-size="28" font-weight="500" letter-spacing="-0.02em" fill="#2F3830">flourish</text>
  </g>

</svg>
